<svg id="Group_142" data-name="Group 142" xmlns="http://www.w3.org/2000/svg" xmlns:xlink="http://www.w3.org/1999/xlink" width="1366.501" height="768" viewBox="0 0 1366.501 768">
  <defs>
    <linearGradient id="linear-gradient" x1="0.5" x2="0.5" y2="1" gradientUnits="objectBoundingBox">
      <stop offset="0" stop-color="#3f51b5"/>
      <stop offset="1" stop-color="#5060b5"/>
    </linearGradient>
  </defs>
  <g id="Rectangle_225" data-name="Rectangle 225" stroke="#707070" stroke-width="1" fill="url(#linear-gradient)">
    <rect width="1366" height="768" stroke="none"/>
    <rect x="0.5" y="0.5" width="1365" height="767" fill="none"/>
  </g>
  <path id="Subtraction_1" data-name="Subtraction 1" d="M-29.276,189.838v0h0c-26.426-24.572-54.906-53.362-84.649-85.568a389.65,389.65,0,0,1-32.179-39.176c-8.055-11.44-14.254-22.207-18.425-32-3.924-9.215-6.153-17.806-6.624-25.532a46.854,46.854,0,0,1,.5-10.56,39.044,39.044,0,0,1,2.719-9.207,39.472,39.472,0,0,1,6.821-10.512,51.172,51.172,0,0,1,9.858-8.391c6.969-4.619,15.84-8.423,26.366-11.307A189.974,189.974,0,0,1-93.759-47.9c9.585-.951,20-1.434,30.969-1.434,13.756,0,25.817.762,33.514,1.4V189.834h0v0Z" transform="translate(1395.776 251)" fill="#fcd7b2"/>
  <path id="Subtraction_2" data-name="Subtraction 2" d="M395.538,115.466H-123.388C-109.578,94.879-71.534,41.83-16.688-6.07A478.592,478.592,0,0,1,27.528-40.476a375.08,375.08,0,0,1,49.841-28.95c8.9-4.252,17.921-8.062,26.813-11.325a277.147,277.147,0,0,1,27.958-8.636,251.875,251.875,0,0,1,29.017-5.505,236.172,236.172,0,0,1,29.989-1.933,231.092,231.092,0,0,1,27.422,1.638,235.52,235.52,0,0,1,28.056,5.123,250.493,250.493,0,0,1,28.635,8.92,277.706,277.706,0,0,1,29.157,13.03,490.929,490.929,0,0,1,54.536,32.341A252.133,252.133,0,0,1,395.537-5.429,150.771,150.771,0,0,1,407.931,8.927a109.552,109.552,0,0,1,8.9,13.775,83.284,83.284,0,0,1,5.747,13.168A68.275,68.275,0,0,1,425.5,48.405a61.422,61.422,0,0,1-.63,20.063,68.894,68.894,0,0,1-6.344,17.957c-5.12,10-12.856,19.771-22.992,29.041Z" transform="translate(540 652.034)" fill="#4f5fbe"/>
</svg>
