<svg xmlns="http://www.w3.org/2000/svg" xmlns:xlink="http://www.w3.org/1999/xlink" width="373.03" height="310.933" viewBox="0 0 373.03 310.933">
  <defs>
    <linearGradient id="linear-gradient" x1="0.5" y1="1" x2="0.5" gradientUnits="objectBoundingBox">
      <stop offset="0" stop-color="gray" stop-opacity="0.251"/>
      <stop offset="0.54" stop-color="gray" stop-opacity="0.122"/>
      <stop offset="1" stop-color="gray" stop-opacity="0.102"/>
    </linearGradient>
  </defs>
  <g id="undraw_questions_75e0" transform="translate(-0.004 0)">
    <ellipse id="Ellipse_134" data-name="Ellipse 134" cx="38.11" cy="3.757" rx="38.11" ry="3.757" transform="translate(227.02 303.42)" fill="#6c63ff" opacity="0.1"/>
    <path id="Path_1020" data-name="Path 1020" d="M261.367,39.234c16.785-6.239,37.218-.873,54.668,6.952,54.805,24.584,94.733,71.252,126.455,118.8,11.486,17.216,22.4,35.189,26.713,54.408,8.792,39.117-14.139,79.613-53.137,93.8-13.262,4.831-27.832,6.811-42.424,7.915-25.948,1.966-52.814,1.185-78.554-6.094-18.356-5.2-35.721-13.57-52.375-22.815C196.2,266.367,153.725,232.82,123.14,191.841c-13.414-17.974-24.763-38.236-25.09-58.975s13.188-41.577,35.423-45.1c9.193-1.457,18.918.059,28.4,1.62C175.846,91.684,190,94.1,203.811,93.1c14.265-1.044,32.819-6.618,35.42-20.237C241.985,58.241,244.6,45.465,261.367,39.234Z" transform="translate(-98.04 -34.686)" fill="#6c63ff" opacity="0.1"/>
    <path id="Path_1021" data-name="Path 1021" d="M341.485,800.381s17.933-1.081,15.819,11.486a3.061,3.061,0,0,1-1.594,3.229s-.03-.933-1.839-.617a8.1,8.1,0,0,1-1.947.1,4.062,4.062,0,0,1-2.382-.985h0s-5.042-2.081-7-10.323c0,0-1.453-1.795-1.393-2.259l3.025,1.293a5.431,5.431,0,0,0-.219,4s.1-3.916.68-3.827c.115.018,1.572.743,1.572.743s-1.78,3.8-.439,6.566c0,0-.509-4.686.992-6.291l2.133,1.245s-2.081,3.928-.669,7.131c0,0-.372-4.916,1.115-6.83l1.932,1.486s-1.955,3.872-.762,6.532c0,0,.152-5.726,1.178-6.157a11.585,11.585,0,0,1,1.947,2.1s-1.338,2.809-.509,4.292c0,0,.509-3.812.929-3.831a12.743,12.743,0,0,1,1.858,4.258,9.2,9.2,0,0,0-1.453-4.5,5.074,5.074,0,0,1,2.579,1.334s-.264-1.787-2.991-1.943a11.693,11.693,0,0,0-1.765-2.033,11.043,11.043,0,0,1,4.362.505s-1.449-1.687-4.86-.921l-1.906-1.553s3.578-.491,5.091.052c0,0-1.743-1.486-5.6-.4l-2.073-1.241a18.761,18.761,0,0,1,4.864-.42s-1.917-1.033-5.473.085l-1.486-.665s2.229-.438,2.887-.509.687-.249.687-.249a7.737,7.737,0,0,0-4.2.464S341.429,800.6,341.485,800.381Z" transform="translate(-250.808 -514.701)" fill="#6c63ff"/>
    <ellipse id="Ellipse_135" data-name="Ellipse 135" cx="12.693" cy="2.144" rx="12.693" ry="2.144" transform="translate(90.336 299.347)" fill="#6c63ff" opacity="0.1"/>
    <path id="Path_1022" data-name="Path 1022" d="M277.076,777.648s10.111-.609,8.918,6.477a1.721,1.721,0,0,1-.9,1.821s-.019-.524-1.037-.346a4.51,4.51,0,0,1-1.1.052,2.251,2.251,0,0,1-1.345-.554h0s-2.839-1.178-3.954-5.823c0,0-.817-1.014-.788-1.275l1.709.743a3.071,3.071,0,0,0-.126,2.256s.056-2.211.372-2.159c.067,0,.888.427.888.427s-1,2.144-.245,3.716c0,0-.29-2.642.557-3.549l1.2.7s-1.17,2.23-.372,4.021c0,0-.2-2.772.628-3.85l1.089.847s-1.115,2.181-.427,3.682c0,0,.085-3.229.665-3.471a6.619,6.619,0,0,1,1.1,1.185s-.743,1.583-.286,2.419c0,0,.286-2.148.524-2.159a7.1,7.1,0,0,1,1.044,2.4,5.2,5.2,0,0,0-.818-2.538,2.834,2.834,0,0,1,1.453.743s-.145-1.007-1.687-1.1a6.568,6.568,0,0,0-.992-1.144,6.213,6.213,0,0,1,2.46.282,2.765,2.765,0,0,0-2.742-.52l-1.074-.877a8.891,8.891,0,0,1,2.872.03s-.985-.84-3.162-.227l-1.167-.7a10.621,10.621,0,0,1,2.739-.234,4.2,4.2,0,0,0-3.084.048l-.836-.372s1.26-.249,1.628-.286.39-.141.39-.141a4.381,4.381,0,0,0-2.367.264A9.8,9.8,0,0,1,277.076,777.648Z" transform="translate(-210.421 -500.421)" fill="#6c63ff"/>
    <ellipse id="Ellipse_136" data-name="Ellipse 136" cx="7.157" cy="1.211" rx="7.157" ry="1.211" transform="translate(66.461 284.926)" fill="#6c63ff" opacity="0.1"/>
    <path id="Path_1023" data-name="Path 1023" d="M946.441,795.972s12.207-.743,10.776,7.8a2.1,2.1,0,0,1-1.085,2.2s-.022-.635-1.252-.42a5.51,5.51,0,0,1-1.327.063,2.731,2.731,0,0,1-1.62-.669h0s-3.433-1.416-4.767-7.027c0,0-.988-1.222-.948-1.535l2.059.877a3.7,3.7,0,0,0-.149,2.724s.067-2.668.461-2.6c.082,0,1.07.513,1.07.513s-1.211,2.6-.3,4.459c0,0-.345-3.188.676-4.281l1.449.844s-1.416,2.675-.453,4.857c0,0-.249-3.344.743-4.648l1.315,1.026s-1.33,2.635-.52,4.459c0,0,.108-3.894.806-4.192a8.017,8.017,0,0,1,1.323,1.431s-.911,1.914-.346,2.924c0,0,.346-2.6.632-2.6a8.632,8.632,0,0,1,1.263,2.9,6.248,6.248,0,0,0-.985-3.062,3.451,3.451,0,0,1,1.754.907s-.178-1.215-2.04-1.323a7.921,7.921,0,0,0-1.2-1.382,7.515,7.515,0,0,1,2.973.342s-.989-1.144-3.311-.624l-1.3-1.059a10.706,10.706,0,0,1,3.467.033s-1.189-1.014-3.816-.275l-1.412-.844a12.861,12.861,0,0,1,3.311-.286,5.062,5.062,0,0,0-3.716.059l-1.011-.453s1.52-.3,1.966-.346.468-.171.468-.171a5.277,5.277,0,0,0-2.854.316A12.366,12.366,0,0,1,946.441,795.972Z" transform="translate(-631.042 -511.935)" fill="#6c63ff"/>
    <ellipse id="Ellipse_137" data-name="Ellipse 137" cx="8.639" cy="1.46" rx="8.639" ry="1.46" transform="translate(315.165 293.342)" fill="#6c63ff" opacity="0.1"/>
    <path id="Path_1024" data-name="Path 1024" d="M764.674,453.808a26.509,26.509,0,0,1-.405-3.961c0-1.594-2.166-3.006-2.166-3.006s-1.338-3.1-2.229-3.552-3.645-4.507-3.645-4.507a3.682,3.682,0,0,0-.829-2.185,31.422,31.422,0,0,1-2.255-3.4c-.372-.453-.186-.773-.743-3.415-.03-.137-.063-.271-.1-.4a.524.524,0,0,0-.059-.171,4.459,4.459,0,0,0,1.052-4.619,1.858,1.858,0,0,0-.528-.818c-.628-.513-1.631-.3-2.278-.788l.687-3.04c.163-.743.249-1.683-.4-2.085A3.374,3.374,0,0,0,750,417.6a3.609,3.609,0,0,1-2.051-2.683,9.2,9.2,0,0,1-.223-3.344c.126-1.078.442-2.126.557-3.207a8.807,8.807,0,0,0-1.364-5.7,4.388,4.388,0,0,0-1.8-1.7c-.687-.308-1.486-.372-2.129-.743-1.382-.881-1.312-2.973-2.415-4.173s-3.058-1.2-4.667-.784-3.211,1.115-4.86.94c-1.063-.119-2.059-.6-3.125-.713a3.292,3.292,0,0,0-.914.041V395.5a1.983,1.983,0,0,0-1.7,1.327,2.028,2.028,0,0,0-.052.543c0,.435.1.888.112,1.3a1.241,1.241,0,0,1-.3.918c-.212.227-.524.346-.743.58a.929.929,0,0,0-.271.684c0,.661.825,1.245,1.378,1.512h.022c-.149.149-.3.3-.435.464a9.787,9.787,0,0,0-2.46,6.5,9.921,9.921,0,0,0,6.034,9.059l-.078.241a13.817,13.817,0,0,1-.546,1.4,2.784,2.784,0,0,0-2.334.26,5.892,5.892,0,0,1-3.694.546,50.161,50.161,0,0,0-6.781-.684c-.464.182-1.382-.635-1.981.457s-.877,1.683-1.486,1.958-1.661,1.137-1.52,1.319-1.524,1.275-1.524,1.275a7.576,7.576,0,0,1-2.259,1.683,13.269,13.269,0,0,0-2.583,1.323l-2.033,1.59s-1.52.23-1.059-.817-.832-2.367-.832-2.367-2.583-5.236-2.583-6.317-2.122-5.693-2.122-5.693l-.26-.026-.119-.338c-.39-1.1-.9-2.441-1.282-3.229-.743-1.5-1.2-1.661-1.2-1.661s-8.948-6.718-14.76-4.671,10.609,8.149,12.084,8.788a2.787,2.787,0,0,1,1.148,1.787,7.646,7.646,0,0,0-3.177,2.858s3.552,7.874,3.645,9.832,2.445,7.432,2.445,7.432a5.183,5.183,0,0,0,5.626,3.824s6.551,1.2,7.982,0a11.322,11.322,0,0,1,3.415-2.285,2.694,2.694,0,0,0,1.289-.91s-2.166,13.656-3.229,14.841-10.453,16.517-7.082,19.259a67.328,67.328,0,0,0,8.439,5.574c.286.141,1.145-1.289,2.371-2.3v.792c.022,5.455.743,13.749,1.739,15.607,1.486,2.731.877,8.011.877,8.011a6.319,6.319,0,0,0,2.493.6c.045.178.1.372.145.557A74.258,74.258,0,0,0,720.578,508c1.014,1.914,1.75,7.971,1.75,7.971s.6,5.945.372,6.781a39.911,39.911,0,0,0,.914,5.945h0c-.372,4.27-1.078,12.5-1.2,15.477h0v.216a.948.948,0,0,1,0,.1v.182h0a2.782,2.782,0,0,0,.022.561,1.82,1.82,0,0,1-.063.847,14.79,14.79,0,0,1-1,2.386,11.368,11.368,0,0,0-.446,1.152,2.082,2.082,0,0,0-1.078,1.531c-.461,1.776-1.152,6.689-1.152,6.689s-.279,3.006-.829,3.69-1.115,4.961,2.813,5.507a5.681,5.681,0,0,0,5.626-2.081l-.138-11.92v-.022a1.8,1.8,0,0,0,.2-.323v-.03c.026-.056.056-.115.082-.182l.034-.089.059-.145a.207.207,0,0,1,0-.052,7.877,7.877,0,0,0,.334-3.549v-.5a1.4,1.4,0,0,1,.022-.245v-.045l.022-.145v-.063a.275.275,0,0,1,.03-.149.168.168,0,0,1,0-.037c.037-.171.082-.372.13-.535v-.041l.056-.178h0c.056-.189.119-.372.186-.572v-.037a.523.523,0,0,1,.063-.175v-.022c.067-.182.138-.371.2-.528l.019-.048.059-.149.019-.044.141-.331h0l1.089,3.363s.6,2.5.279,3.1.371,3.051.829,3.1l-.427,3.1a47.35,47.35,0,0,0-.412,5.146c-.03.2-.06.372-.082.49a11.164,11.164,0,0,0,.416,4.047c3.642,4.307,7.982.334,7.982.334s.505-2.278,0-2.731-.279-2.1-.279-2.1.23-4.054.275-7.012-2.419-5.574-2.419-5.574l-.138.123a8.761,8.761,0,0,1-.855-3.118c.186-1.048-.509-12.11-.509-12.11a65.612,65.612,0,0,0,.164-8.918h0c.059-.5.115-1,.171-1.486.279-2.378.505-4.411.594-5.477h0v-.126c.022-.286.034-.491.03-.587,0-.372,0-.8.037-1.26.085-1.278.286-2.7.286-2.7l.966-5.875a18.366,18.366,0,0,1,1.8-4.459l.126-.2h0c.041-.071.082-.149.126-.23l.019-.033c.041-.078.086-.16.126-.245l.019-.034c.149-.293.308-.632.476-1,0-.03.026-.056.037-.085l.126-.282a.292.292,0,0,1,.048-.112c.019-.037.078-.19.119-.282a1.055,1.055,0,0,0,.048-.115c.048-.111.1-.227.149-.346l.07-.171c.033-.085.071-.171.108-.256l.089-.227c.026-.056.048-.111.071-.167l.1-.256c0-.037.034-.078.048-.115.264-.658.517-1.308.743-1.9h0c.071-.186.141-.372.2-.535,2.363.145,3.969.275,3.969.275a54.45,54.45,0,0,0,.505-8.829,32.8,32.8,0,0,1,.583-7.06c.033-.182.063-.346.093-.494l.063.052c1.156.91,1.984-2.1,1.984-2.1s-.312-2.806-.743-6.206l-.044-.338a17.444,17.444,0,0,0,2.018.308s.372-.033.881-.1a24.38,24.38,0,0,0,4.437,2.007l2.456-4.533a18.433,18.433,0,0,1,1.616-2.687c.743-.91,3.367-3.824,3.322-4.37a15.382,15.382,0,0,1,1.8-5.1A11.262,11.262,0,0,0,764.674,453.808Zm-10.241,3.46c-.97.409-1.891,2.687-1.936,3.37s-1.063,3.686-2.122,4.05a14.149,14.149,0,0,0-3.14,2.326c-.3.026-.65.067-1.011.126a35.411,35.411,0,0,0-1.063-5.73c-.743-1.367.814-5.737.814-5.737s.152-4.414,1.115-5.462.743-3.69.743-3.69.23-1.092.323-1.59,1.371,0,1.382,0h0s2.49,1.364,2.861,3.411,3.092,5.6,3.092,5.6-.416,1.23,0,1.858S755.4,456.858,754.433,457.267Z" transform="translate(-461.437 -259.98)" fill="url(#linear-gradient)"/>
    <path id="Path_1025" data-name="Path 1025" d="M707,451.777a7.432,7.432,0,0,1,7.432-3.5v5.317H711.2l-2.527-.639Z" transform="translate(-480.715 -293.399)" fill="#4c4981"/>
    <path id="Path_1026" data-name="Path 1026" d="M707,451.777a7.432,7.432,0,0,1,7.432-3.5v5.317H711.2l-2.527-.639Z" transform="translate(-480.715 -293.399)" opacity="0.1"/>
    <path id="Path_1027" data-name="Path 1027" d="M695.852,432.408l-3.957,2.772s-.033-.554-.134-1.312c-.2-1.434-.639-3.586-1.594-4-1.453-.639-17.628-6.726-11.891-8.773s14.54,4.663,14.54,4.663.453.156,1.178,1.654c.372.788.881,2.129,1.263,3.225C695.611,431.624,695.852,432.408,695.852,432.408Z" transform="translate(-461.894 -276.122)" fill="#ae6e79"/>
    <path id="Path_1028" data-name="Path 1028" d="M712.861,431.722l.45-.212,1.263,1.442-1.033,2.2-1.761-.706.409-1.761Z" transform="translate(-447.289 -271.166)" fill="#4c4981"/>
    <path id="Path_1029" data-name="Path 1029" d="M789.976,811s-1.137-.134-1.59,1.639-1.137,6.689-1.137,6.689-.271,3-.818,3.682-1.089,4.953,2.772,5.5a5.591,5.591,0,0,0,5.544-2.077l-.138-11.917Z" transform="translate(-530.39 -521.385)" fill="#444053"/>
    <path id="Path_1030" data-name="Path 1030" d="M822.807,812.44s2.43,2.6,2.385,5.552-.275,7-.275,7-.223,1.639.275,2.092,0,2.727,0,2.727-4.273,3.965-7.863-.334a11.366,11.366,0,0,1-.409-4.039c.29-1.583,1.1-8.7,1.1-8.7Z" transform="translate(-549.747 -522.293)" fill="#444053"/>
    <path id="Path_1031" data-name="Path 1031" d="M811.055,661.981s-2.452,6.859-3.5,8.45a18.194,18.194,0,0,0-1.769,4.459l-.955,5.86a32.7,32.7,0,0,0-.32,3.954c.045,1.319-2.363,20.538-2.363,20.538l-3.816,4.864s-1.68,3.407-1.408,4.831a7.016,7.016,0,0,1-.743,4.362s-.089,4.459-.227,5.451.5,3.82,0,4.318-7.179.275-7.361-.546.818-4.771.818-4.771l.591-3.816s1.182-2.088.91-2.772.5-2.27.543-2.408,1.274-2.363,1.048-3.225,1.431-19.2,1.431-19.2l4.678-32.852Z" transform="translate(-531.975 -426.171)" fill="#ae6e79"/>
    <path id="Path_1032" data-name="Path 1032" d="M811.055,661.993s-.372,1.033-.881,2.389a46.223,46.223,0,0,1-2.62,6.061,18.43,18.43,0,0,0-1.772,4.459l-.955,5.864a32.972,32.972,0,0,0-.316,3.954c0,.52-.349,3.839-.8,7.662-.687,5.845-1.568,12.876-1.568,12.876l-3.816,4.864s-.193.372-.435.959c-.479,1.115-1.156,2.924-.974,3.857a7.043,7.043,0,0,1-.743,4.362s-.093,4.459-.227,5.451.5,3.816,0,4.318-7.179.275-7.361-.543.818-4.771.818-4.771l.591-3.82s1.182-2.088.907-2.772.5-2.27.546-2.408,1.275-2.363,1.048-3.225c-.175-.658.743-11.423,1.17-16.528.145-1.605.238-2.649.238-2.649l4.024-28.263.327-2.278.327-2.311Z" transform="translate(-531.975 -426.184)" opacity="0.1"/>
    <path id="Path_1033" data-name="Path 1033" d="M804.711,734.138c.041.5-6.41,1.23-7.331.684s0-7.317,0-7.317l.42-3.088c-.45-.048-1.133-2.5-.817-3.092s-.271-3.088-.271-3.088l-1.07-3.344-.654-2.047c-1.063-2.345-2.6-9.033-3.556-14.027a40.637,40.637,0,0,1-.9-5.923c.227-.818-.371-6.77-.371-6.77s-.743-6.046-1.724-7.952a74.865,74.865,0,0,1-2.765-9.07c-.409-1.572-.691-2.7-.691-2.7s6.867-.576,11.032-.777c1.914-.093,3.259-.1,3.1.052a5.65,5.65,0,0,0-.19,2.192,57.278,57.278,0,0,0,.914,10.077c.635,2.044,1.271,8.175,1,8.769a27.673,27.673,0,0,0-.182,4.544,20.436,20.436,0,0,1,.8,4.931,66.646,66.646,0,0,1-.156,8.877s.68,11.044.5,12.088,1.453,4.318,1.453,4.953.453,4.953.453,4.953S804.682,733.64,804.711,734.138Z" transform="translate(-529.719 -429.99)" fill="#ae6e79"/>
    <path id="Path_1034" data-name="Path 1034" d="M818.911,460.389l-.78.843-.509.55-2.973,3.2-7.681.866-4.087-1.093-1.011-.271s0-2.051.182-4.511c.26-3.155.881-6.986,2.363-8.03a5.9,5.9,0,0,0,1.728-2.189,12.315,12.315,0,0,0,.743-1.836c.03-.082.052-.16.078-.242a20.513,20.513,0,0,0,.721-3.37s.981-.542,2.345-1.174c3.556-1.661,9.7-3.954,7.562,1.174a20.071,20.071,0,0,0-.8,2.3c-.033.115-.063.23-.089.342-.713,2.854-.242,4.585.29,5.54h0a3.483,3.483,0,0,0,.308.472,2.478,2.478,0,0,0,.517.524l.884,5.615.074.464Z" transform="translate(-540.333 -288.972)" fill="#ae6e79"/>
    <path id="Path_1035" data-name="Path 1035" d="M826.085,445.041c-.405.974.2-.8,0,0-1.62,1.152-5.436,4.433-7.58,4.433a5.957,5.957,0,0,1-3.125-.825,20.275,20.275,0,0,0,.8-3.608S829.04,437.951,826.085,445.041Z" transform="translate(-548.823 -289.435)" opacity="0.1"/>
    <path id="Path_1036" data-name="Path 1036" d="M819.493,417.547a9.914,9.914,0,0,1-8.87,9.851c-.342.033-.687.056-1.037.056a9.907,9.907,0,1,1,9.906-9.906Z" transform="translate(-538.956 -267.912)" fill="#ae6e79"/>
    <path id="Path_1037" data-name="Path 1037" d="M815.314,511.042l-1.412,3.682s-1.148.048-2.939.1c-6.046.193-19.367.438-19.962-1.115a3.951,3.951,0,0,1-.208-1.222,23.958,23.958,0,0,1,1.026-6s.635-7.272.635-7.588-.546-5.41-.546-5.41L793,489.4l3.043-2.137s1.364,2.092,2.181,2.27a5.669,5.669,0,0,1,1.91,1.185s2.679,1.635,3.545.725,7.588-4.909,7.588-4.909l3.545,3.909Z" transform="translate(-533.37 -317.494)" opacity="0.1"/>
    <path id="Path_1038" data-name="Path 1038" d="M815.333,512.563l-1.412,3.679s-1.148.052-2.939.108h-.175c-.773.026-1.657.052-2.6.071-4.8.112-11.423.141-14.882-.372-1.3-.186-2.152-.453-2.293-.817a3.286,3.286,0,0,1-.164-.676c-.022-.171-.037-.372-.045-.546a23.961,23.961,0,0,1,1.026-6s.635-7.272.635-7.588-.546-5.41-.546-5.41l1.092-4.088,2.092-1.464.951-.669a14.279,14.279,0,0,0,1.044,1.375,2.78,2.78,0,0,0,1.137.9,5.687,5.687,0,0,1,1.91,1.185s2.679,1.635,3.545.725a68.866,68.866,0,0,1,6.633-4.336c.58-.353.955-.572.955-.572l.476.528,3.069,3.381Z" transform="translate(-533.388 -318.449)" fill="#fff"/>
    <path id="Path_1039" data-name="Path 1039" d="M720.731,449.2l-3.957,2.772s-.033-.554-.134-1.312a8.011,8.011,0,0,0,3.485-3.233C720.49,448.418,720.731,449.2,720.731,449.2Z" transform="translate(-486.773 -292.917)" opacity="0.1"/>
    <path id="Path_1040" data-name="Path 1040" d="M728.54,459.227l-.862-.23a7.493,7.493,0,0,1-2.23,1.683A13.015,13.015,0,0,0,722.907,462l-2,1.59s-1.486.23-1.044-.817-.817-2.363-.817-2.363-2.545-5.225-2.545-6.317-2.1-5.678-2.1-5.678-2.638,5.135-7.454,3.5c0,0,3.5,7.859,3.59,9.814s2.408,7.406,2.408,7.406a5.13,5.13,0,0,0,5.544,3.82s6.454,1.2,7.863,0a11.4,11.4,0,0,1,3.344-2.281,2.758,2.758,0,0,0,1.271-.907v-5.4Z" transform="translate(-480.678 -293.532)" fill="#4c4981"/>
    <path id="Path_1041" data-name="Path 1041" d="M743.3,491.33s1.137,4.229.409,4.682Z" transform="translate(-503.527 -320.504)" opacity="0.1"/>
    <path id="Path_1042" data-name="Path 1042" d="M810.97,560.187c-6.046.193-19.367.435-19.962-1.115a3.949,3.949,0,0,1-.208-1.222l19.75,1.04Z" transform="translate(-533.376 -362.306)" opacity="0.1"/>
    <path id="Path_1043" data-name="Path 1043" d="M808.811,661.981s-.371,1.033-.881,2.389c-2.508-.152-5.83-.312-8.985-.334-1.115,0-2.207,0-3.24.037a24.408,24.408,0,0,0-5.3.587,14.046,14.046,0,0,1-4.719.609c-.409-1.572-.691-2.7-.691-2.7s6.867-.576,11.032-.777l.327-2.311Z" transform="translate(-529.732 -426.171)" opacity="0.1"/>
    <path id="Path_1044" data-name="Path 1044" d="M806.544,582.319l-.773,1.635s-.108.487-.245,1.26a32.208,32.208,0,0,0-.572,7.06,55.851,55.851,0,0,1-.5,8.814s-16.721-1.408-21.626,0-7.32,0-7.32,0,.594-5.269-.862-8c-.992-1.858-1.691-10.152-1.713-15.607,0-2.516.126-4.422.442-4.808,1-1.226,5.269-13.5,5.269-13.5l.974.052,2.6.138,14.789.78,2.322.123.245.743Z" transform="translate(-522.147 -363.142)" fill="#444053"/>
    <path id="Path_1045" data-name="Path 1045" d="M871.652,595.823l.138,1.457s-7.324-2.385-6.953-5.317,0-2.6,0-2.6l5.886.5Z" transform="translate(-579.893 -382.101)" fill="#4c4981"/>
    <path id="Path_1046" data-name="Path 1046" d="M871.652,595.823l.138,1.457s-7.324-2.385-6.953-5.317,0-2.6,0-2.6l5.886.5Z" transform="translate(-579.893 -382.101)" opacity="0.1"/>
    <path id="Path_1047" data-name="Path 1047" d="M754.571,492.492a6.526,6.526,0,0,0,2.579,1.341,1.68,1.68,0,0,1-.743-.372c-.524-.372-1.022-.777-1.527-1.17a4.791,4.791,0,0,0-1.419-.981A7.838,7.838,0,0,0,754.571,492.492Z" transform="translate(-509.911 -320.491)" opacity="0.1"/>
    <path id="Path_1048" data-name="Path 1048" d="M753.34,496.57a3.281,3.281,0,0,1,.565.9,5.413,5.413,0,0,1-.041,2.813l-1.174-2.832c-.2-.483-.409-.966-.654-1.427-.108-.2-.784-1.018-.706-1.189C751.538,494.347,753.12,496.3,753.34,496.57Z" transform="translate(-508.569 -322.656)" opacity="0.1"/>
    <path id="Path_1049" data-name="Path 1049" d="M836.964,540.15a3.783,3.783,0,0,0,2.137-1c-1.208.152-2.352.628-3.541.877a5.262,5.262,0,0,1-3.3-.3A8.115,8.115,0,0,0,836.964,540.15Z" transform="translate(-559.43 -350.555)" opacity="0.1"/>
    <path id="Path_1050" data-name="Path 1050" d="M825.713,513.373a.829.829,0,0,1-.613-.152q-1.36-.78-2.683-1.628a17.82,17.82,0,0,1-2.627-1.813A13.365,13.365,0,0,0,825.713,513.373Z" transform="translate(-551.594 -332.098)" opacity="0.1"/>
    <path id="Path_1051" data-name="Path 1051" d="M838.331,543.872a5.659,5.659,0,0,0,1.42-.115,1.9,1.9,0,0,0,1.167-.765.668.668,0,0,0-.494.078,8.338,8.338,0,0,1-4.563.546A6.592,6.592,0,0,0,838.331,543.872Z" transform="translate(-561.693 -352.958)" opacity="0.1"/>
    <path id="Path_1052" data-name="Path 1052" d="M799.79,601.5a14.908,14.908,0,0,1-2.9.569,17.562,17.562,0,0,1-2.3-.045l-3.716-.234-1.858-.119c-.219,0-1.115,0-.673-.442.223-.216,1.464-.078,1.784-.089q.925-.03,1.858-.033c1.23,0,2.464,0,3.694.074C797.059,601.251,798.415,601.355,799.79,601.5Z" transform="translate(-531.758 -389.491)" opacity="0.1"/>
    <path id="Path_1053" data-name="Path 1053" d="M793.363,606.536a15,15,0,0,0-2.1.431,13.943,13.943,0,0,1-2.192.085,12.227,12.227,0,0,1-4.225-.862C787.685,606.335,790.528,606.42,793.363,606.536Z" transform="translate(-529.637 -392.683)" opacity="0.1"/>
    <path id="Path_1054" data-name="Path 1054" d="M784.152,612.159a6.094,6.094,0,0,1,.81.223,9.508,9.508,0,0,0,4.831-.342,2.835,2.835,0,0,1-1.832,1.018,8.494,8.494,0,0,1-3.567.13c-.372-.074-1.3-.208-1.486-.594C782.6,612.025,783.8,612.1,784.152,612.159Z" transform="translate(-528.385 -396.36)" opacity="0.1"/>
    <path id="Path_1055" data-name="Path 1055" d="M806.047,618.867a12.132,12.132,0,0,1,1.39.372c1.765.439,3.6-.163,5.37-.568a24.99,24.99,0,0,1,6.5-.6,6.439,6.439,0,0,0-1.394.457c-.5.152-1.011.294-1.52.42-1,.245-2.014.446-3.036.591a31.211,31.211,0,0,1-6.231.271c-.951-.052-2.6.045-3.415-.435A3.764,3.764,0,0,1,806.047,618.867Z" transform="translate(-541.489 -400.136)" opacity="0.1"/>
    <path id="Path_1056" data-name="Path 1056" d="M787.37,465.854s.089,4.184-.591,6.094c-.216.595-.55,1.691-.914,2.921-.4,1.364-.832,2.891-1.167,4.087s-.557,2-.557,2-1.535,12.5-1.932,18.457a1.452,1.452,0,0,1-.022.312c-.022.334-.059.684-.115,1.044-.884,5.916-5.986,15.038-7.7,15.767a5.1,5.1,0,0,0-1.442.992c0-2.516.126-4.422.442-4.808,1-1.226,5.269-13.5,5.269-13.5l.974.052c-.022-.171-.037-.372-.045-.546a23.959,23.959,0,0,1,1.026-6s.635-7.272.635-7.588-.546-5.41-.546-5.41l1.092-4.087,2.092-1.464c.26-3.155.881-6.986,2.363-8.03a5.905,5.905,0,0,0,1.728-2.189c.294.041-.242-.219-.242-.219Z" transform="translate(-522.146 -303.166)" opacity="0.1"/>
    <path id="Path_1057" data-name="Path 1057" d="M768.983,462.874a2.705,2.705,0,0,0-2.3.26,5.751,5.751,0,0,1-3.638.546,49.305,49.305,0,0,0-6.689-.684c-.464.182-1.364-.635-1.955.457s-.862,1.68-1.453,1.951-1.639,1.137-1.486,1.319-1.486,1.271-1.486,1.271l3.315,10.776s-2.137,13.63-3.181,14.812-10.315,16.495-7,19.222a66.057,66.057,0,0,0,8.316,5.574c.372.182,1.68-2.27,3.5-3.043s7.454-11,7.8-16.814,1.954-18.765,1.954-18.765,1.955-7.09,2.635-9,.591-6.094.591-6.094Z" transform="translate(-502.961 -302.53)" fill="#4c4981"/>
    <path id="Path_1058" data-name="Path 1058" d="M847.045,527.829l-.773,1.635s-.108.487-.245,1.26a.694.694,0,0,1-.372-.167c-1.137-.91-7.8-7.77-8.134-13.86-.234-4.493-.123-8.364-.048-10.089.022-.543.045-.87.045-.94h0s5.18-6.272,4.589-8.495-1.954-14.12-1.954-14.12l-.2-1.561-.346-2.638-.825-6.384.855.2a2.482,2.482,0,0,0,.517.524l.884,5.615,3.069,3.381.5,20.586-1.412,3.679s-1.148.052-2.939.108h-.175Z" transform="translate(-562.648 -308.652)" opacity="0.1"/>
    <path id="Path_1059" data-name="Path 1059" d="M850.748,493.389s-1.271-.5-1.36,0-.32,1.587-.32,1.587.227,2.638-.743,3.682-1.115,5.451-1.115,5.451-1.531,4.362-.806,5.726a36.746,36.746,0,0,1,1.081,5.946c.26,1.858.517,3.9.743,5.763.413,3.389.721,6.194.721,6.194s-.821,3-1.958,2.088-7.8-7.77-8.13-13.86c-.223-4.277-.134-7.993-.059-9.825.03-.777.059-1.215.059-1.215s5.18-6.272,4.589-8.5-1.955-14.12-1.955-14.12l-.238-1.839L841,478.492l-.059-.435-.821-6.317h0c.145.034,5.243,1.185,5.916,1.858s4.831,1.635,4.831,1.635a3.634,3.634,0,0,1,2.579,2.646c.041.126.071.26.1.4.546,2.638.372,2.954.743,3.411S850.748,493.389,850.748,493.389Z" transform="translate(-563.489 -308.193)" fill="#4c4981"/>
    <path id="Path_1060" data-name="Path 1060" d="M856.69,596.013c-1.858-.372-4.615-1.23-4.552-3.125.056-1.772,2.189-2.412,3.8-2.638C856.2,592.1,856.46,594.148,856.69,596.013Z" transform="translate(-571.921 -382.666)" opacity="0.1"/>
    <path id="Path_1061" data-name="Path 1061" d="M862.912,594.39c-.074.16-.372.3-.8.42a21.43,21.43,0,0,1-3.021.494s-6.317-.5-6.228-3.367c.067-2.055,2.921-2.6,4.522-2.724a10.4,10.4,0,0,1,1.066-.044S863.184,593.8,862.912,594.39Z" transform="translate(-572.38 -381.987)" fill="#ae6e79"/>
    <path id="Path_1062" data-name="Path 1062" d="M869.984,594.39c-.074.16-.372.3-.8.42-1.646-2.2-3.943-5.031-5.068-5.28l.342-.316a10.4,10.4,0,0,1,1.066-.044S870.255,593.8,869.984,594.39Z" transform="translate(-579.451 -381.987)" opacity="0.1"/>
    <path id="Path_1063" data-name="Path 1063" d="M868.858,497.69l1.858.275a32.3,32.3,0,0,0,2.23,3.408,3.716,3.716,0,0,1,.818,2.181s2.727,4.043,3.589,4.5,2.181,3.545,2.181,3.545,2.137,1.408,2.137,3a26.716,26.716,0,0,0,.409,3.954,11.211,11.211,0,0,1-1.226,4.459,15.225,15.225,0,0,0-1.772,5.083c.048.557-2.545,3.456-3.27,4.362a18.482,18.482,0,0,0-1.591,2.683l-2.408,4.545s-5.091-7.5-6.952-7.907a14.63,14.63,0,0,1,3.132-2.363c1.044-.364,2.048-3.344,2.092-4.043s.955-2.954,1.906-3.344,1.457-.818,1.048-1.457a2.715,2.715,0,0,1,0-1.858s-2.683-3.545-3.047-5.574-2.817-3.407-2.817-3.407l-1.408-3.456Z" transform="translate(-579.916 -324.501)" fill="#4c4981"/>
    <path id="Path_1064" data-name="Path 1064" d="M890.939,540.99a5.9,5.9,0,0,1,3.668-1.39,4.471,4.471,0,0,0-2.4.94,5.665,5.665,0,0,0-.665.847c-.216.308-1.969,2.538-2.229,2.185C888.876,543.056,890.586,541.291,890.939,540.99Z" transform="translate(-595.238 -350.837)" opacity="0.1"/>
    <path id="Path_1065" data-name="Path 1065" d="M882.73,525.321a1.572,1.572,0,0,0,1.3-.918,5.148,5.148,0,0,0,.4-1.613,24.066,24.066,0,0,1,.561-2.761,1.278,1.278,0,0,0-.078-1.115,3.765,3.765,0,0,0-.4-.825,4.949,4.949,0,0,0-.569,1.735c-.171.617-.327,1.237-.476,1.858C883.391,521.98,882.775,525.321,882.73,525.321Z" transform="translate(-591.146 -337.32)" opacity="0.1"/>
    <path id="Path_1066" data-name="Path 1066" d="M832.966,437.578a3.833,3.833,0,0,1-.628.647c-.743.591-1.728,1.089-1.821,2.021a2.176,2.176,0,0,1-.112.9c-.238.409-.821.372-1.286.294a2.23,2.23,0,0,1-1.089-.4c-.487-.416-.531-1.159-.9-1.683a2.293,2.293,0,0,0-1.858-.821c-.695-.022-1.386.134-2.081.163a5.718,5.718,0,0,1-1.334-.089,4.22,4.22,0,0,1-.431-.089,5.54,5.54,0,0,1-.907-.308,3.992,3.992,0,0,1-.442-.208,5.873,5.873,0,0,1-1.282-.892,3.187,3.187,0,0,1-1.189-2.412c.034-.568.29-1.092.372-1.654.279-1.605-.788-3.121-1.943-4.27-.461-.457-.951-.9-1.412-1.364a6.8,6.8,0,0,1-1.661-2.371,7.06,7.06,0,0,1-.3-2.973,20.515,20.515,0,0,0,.085-3.054c-.342-3.612-3.426-6.38-6.51-7.885l-.137-.071a9.9,9.9,0,1,1,13.321,14.492c-.033.115-.063.23-.089.342-.713,2.854-.242,4.585.29,5.54h0c.145.033,5.243,1.185,5.916,1.858s4.831,1.635,4.831,1.635a3.634,3.634,0,0,1,2.6,2.657Z" transform="translate(-542.991 -267.923)" opacity="0.1"/>
    <path id="Path_1067" data-name="Path 1067" d="M803.885,400.986c.2-.234.513-.353.721-.58.643-.7,0-1.839.234-2.761a2.293,2.293,0,0,1,2.557-1.36c1.048.108,2.029.591,3.077.71,1.627.182,3.2-.524,4.79-.936s3.5-.435,4.6.78,1.018,3.285,2.378,4.165a13.524,13.524,0,0,0,2.1.743,4.313,4.313,0,0,1,1.776,1.7,8.9,8.9,0,0,1,1.345,5.689c-.115,1.078-.427,2.125-.554,3.2a9.325,9.325,0,0,0,.223,3.344,3.564,3.564,0,0,0,2.018,2.675,3.408,3.408,0,0,1,.743.256c.643.4.557,1.345.394,2.081l-.661,3.051c.635.483,1.624.275,2.23.784a1.859,1.859,0,0,1,.52.818,4.459,4.459,0,0,1-1.334,4.883c-.743.591-1.728,1.089-1.821,2.018a2.1,2.1,0,0,1-.111.9c-.234.409-.821.372-1.286.294a2.228,2.228,0,0,1-1.085-.4c-.491-.416-.531-1.159-.9-1.683a2.3,2.3,0,0,0-1.858-.821c-.7-.022-1.386.134-2.085.167a6.161,6.161,0,0,1-4.381-1.583,3.2,3.2,0,0,1-1.193-2.415c.033-.565.29-1.092.372-1.654.275-1.6-.788-3.121-1.943-4.27s-2.512-2.207-3.077-3.734c-.706-1.891-.022-4-.212-6.009-.342-3.616-3.422-6.38-6.51-7.889C804.257,402.792,803.086,401.9,803.885,400.986Z" transform="translate(-541.43 -260.474)" fill="#444053"/>
    <path id="Path_1068" data-name="Path 1068" d="M828.138,433.013c-.49-.42-.531-1.159-.9-1.683a2.308,2.308,0,0,0-1.858-.825c-.7-.022-1.39.134-2.085.167a6.142,6.142,0,0,1-4.4-1.587,3.187,3.187,0,0,1-1.189-2.412c.034-.569.29-1.1.372-1.654.279-1.605-.788-3.125-1.943-4.273s-2.508-2.207-3.077-3.734c-.7-1.888,0-4-.208-6.009-.346-3.616-3.426-6.38-6.51-7.889-.721-.353-1.891-1.249-1.092-2.159.2-.234.509-.353.717-.58.643-.695,0-1.839.238-2.757a1.517,1.517,0,0,1,.234-.509,1.982,1.982,0,0,0-1.676,1.327c-.227.922.409,2.062-.234,2.761-.208.227-.516.346-.721.576-.8.91.372,1.81,1.092,2.159,3.088,1.509,6.168,4.277,6.51,7.889.189,2.01-.494,4.121.212,6.012.565,1.523,1.921,2.6,3.077,3.734s2.23,2.664,1.943,4.269a14.263,14.263,0,0,0-.372,1.654,3.191,3.191,0,0,0,1.193,2.412,6.127,6.127,0,0,0,4.392,1.587c.7-.033,1.386-.186,2.085-.167a2.311,2.311,0,0,1,1.858.825c.372.524.413,1.267.9,1.683a2.23,2.23,0,0,0,1.085.4c.464.085,1.051.115,1.286-.29a1,1,0,0,0,.1-.535A2.136,2.136,0,0,1,828.138,433.013Z" transform="translate(-541.381 -261.295)" opacity="0.1"/>
    <path id="Path_1069" data-name="Path 1069" d="M618.069,181.244h-25.7V155.917h25.721Zm-.372-38.188H592.738c0-39.359,37.411-37.058,37.411-61.959a24.814,24.814,0,0,0-24.941-24.7c-13.715,0-24.937,11.846-24.937,25.093H555.33a49.879,49.879,0,0,1,99.756-.39c0,31.135-37.408,34.68-37.408,61.959Z" transform="translate(-385.404 -31.61)" fill="#4f5fbe"/>
    <path id="Path_1070" data-name="Path 1070" d="M351.856,348.648h-6.629V342.1h6.629Zm-.1-9.847h-6.428c0-10.144,9.643-9.553,9.643-15.978a6.4,6.4,0,0,0-6.428-6.373,6.566,6.566,0,0,0-6.414,6.466H335.7a12.86,12.86,0,1,1,25.719-.1c-.02,8.026-9.663,8.94-9.663,15.971Z" transform="translate(-247.386 -206.557)" fill="#6c63ff" opacity="0.1"/>
    <path id="Path_1071" data-name="Path 1071" d="M486.886,471.083h-6.629v-6.529h6.629Zm-.1-9.843h-6.428c0-10.148,9.643-9.554,9.643-15.978a6.4,6.4,0,0,0-6.428-6.369,6.566,6.566,0,0,0-6.447,6.473H470.7a12.86,12.86,0,1,1,25.719-.1C496.429,453.292,486.789,454.21,486.789,461.24Z" transform="translate(-332.221 -283.506)" fill="#6c63ff" opacity="0.1"/>
    <path id="Path_1072" data-name="Path 1072" d="M576.58,272.365h-4.8v-4.723h4.8Zm-.071-7.138h-4.66c0-7.35,6.99-6.923,6.99-11.575a4.637,4.637,0,0,0-4.66-4.615,4.756,4.756,0,0,0-4.66,4.689h-4.66a9.32,9.32,0,0,1,18.639-.074C583.491,259.467,576.509,260.133,576.509,265.227Z" transform="translate(-391.393 -165.311)" fill="#6c63ff" opacity="0.1"/>
    <path id="Path_1073" data-name="Path 1073" d="M806.01,311.136h-2.716V308.46h2.716Zm-.041-4.032h-2.65c0-4.154,3.95-3.913,3.95-6.544a2.6,2.6,0,0,0-2.631-2.6A2.69,2.69,0,0,0,802,300.609H799.37a5.269,5.269,0,0,1,10.534-.041C809.919,303.834,805.969,304.224,805.969,307.1Z" transform="translate(-538.762 -197.415)" fill="#6c63ff" opacity="0.1"/>
    <path id="Path_1074" data-name="Path 1074" d="M917.8,638.606h-2.716v-2.675H917.8Zm-.041-4.032H915.12c0-4.158,3.954-3.913,3.954-6.544a2.619,2.619,0,0,0-2.635-2.6,2.687,2.687,0,0,0-2.635,2.649H911.17a5.269,5.269,0,0,1,10.535-.041c.015,3.281-3.935,3.656-3.935,6.536Z" transform="translate(-609.018 -403.202)" fill="#6c63ff" opacity="0.1"/>
  </g>
</svg>
