<svg xmlns="http://www.w3.org/2000/svg" xmlns:xlink="http://www.w3.org/1999/xlink" width="406.281" height="311.97" viewBox="0 0 406.281 311.97">
  <defs>
    <linearGradient id="linear-gradient" x1="0.5" y1="1" x2="0.5" gradientUnits="objectBoundingBox">
      <stop offset="0" stop-color="gray" stop-opacity="0.251"/>
      <stop offset="0.54" stop-color="gray" stop-opacity="0.122"/>
      <stop offset="1" stop-color="gray" stop-opacity="0.102"/>
    </linearGradient>
    <linearGradient id="linear-gradient-2" x1="0.5" x2="0.5" xlink:href="#linear-gradient"/>
  </defs>
  <g id="undraw_add_to_cart_vkjp" transform="translate(0.01 0.019)">
    <path id="Path_1077" data-name="Path 1077" d="M506.173,234.047c-.364.266-.7.524-1.056.775a35.6,35.6,0,0,1-4.124,2.515c-7.491,3.949-16.725,5.878-25.719,7.189C455.1,247.467,434.508,248.038,414,248.6c-55.409,1.521-110.953,3.039-166.228-.466-21.839-1.383-44.158-3.7-63.948-10.8q-4.255-1.521-8.343-3.356a68.514,68.514,0,0,1-15.214-9.1,33.128,33.128,0,0,1-9.5-11.669c-4.182-9.187-1.969-19.506,2.806-28.511a88.6,88.6,0,0,1,6.694-10.472c3.687-5.07,7.753-9.995,11.462-15.062,13.2-18.01,21.81-40.8,9.627-59.267-3.5-5.307-8.561-9.966-11.415-15.506-3.64-7.087-3.36-14.956-2.2-22.6q.226-1.456.477-2.883c1.976-11.334,5.7-23.546,17.165-30.622C197.3,20.938,214.214,21.309,229,23.923c22.993,4.106,44.2,12.652,65.637,20.369s43.86,14.767,67.417,15.524c20.8.67,45.065-4.342,58.871-17.369,13.409-12.652,38.615-13.617,56.781-5.973,12.47,5.245,21.773,14.694,25.7,25.322a33.051,33.051,0,0,1,1.707,6.6,30.416,30.416,0,0,1,.306,6.22c-.055,1.026-.16,2.042-.306,3.047-3.036,20.973-24.886,37.516-38.167,56.25-6.49,9.151-11.072,20.143-6.61,30.01,6.806,15.036,30.476,20.383,44.77,31.572a33.632,33.632,0,0,1,7.025,7.207C519.061,212.655,516.5,226.1,506.173,234.047Z" transform="translate(-109.743 -21.951)" fill="#6c63ff" opacity="0.1"/>
    <g id="flowers" transform="translate(-0.01 -0.019)">
      <path id="Path_1078" data-name="Path 1078" d="M167.37,221.114S150.626,191.442,125.4,182.9a51.607,51.607,0,0,1-26.149-19.56A86.627,86.627,0,0,1,91.53,149.46" transform="translate(-73.462 -102.863)" fill="none" stroke="#535461" stroke-miterlimit="10" stroke-width="2"/>
      <path id="Path_1079" data-name="Path 1079" d="M44.092,112.625c2.875,2.777,16.263,5.689,16.263,5.689s-3.276-13.293-6.159-16.084a7.254,7.254,0,1,0-10.1,10.41Z" transform="translate(-41.89 -71.52)" fill="#6c63ff"/>
      <path id="Path_1080" data-name="Path 1080" d="M58.536,175.353c3.927.779,16.743-4.073,16.743-4.073s-9.991-9.376-13.922-10.155a7.253,7.253,0,1,0-2.821,14.23Z" transform="translate(-48.76 -110.193)" fill="#6c63ff"/>
      <path id="Path_1081" data-name="Path 1081" d="M127.272,247.477c3.785-1.31,12.375-11.964,12.375-11.964s-13.351-3.054-17.133-1.743a7.254,7.254,0,1,0,4.732,13.708Z" transform="translate(-89.923 -156.277)" fill="#6c63ff"/>
      <path id="Path_1082" data-name="Path 1082" d="M199.258,288.078c3.953-.655,14.232-9.7,14.232-9.7s-12.641-5.267-16.594-4.615a7.255,7.255,0,0,0,2.362,14.315Z" transform="translate(-136.613 -181.886)" fill="#6c63ff"/>
      <path id="Path_1083" data-name="Path 1083" d="M120.042,147.783c0,4-7.243,15.626-7.243,15.626s-7.258-11.615-7.261-15.619a7.254,7.254,0,1,1,14.5,0Z" transform="translate(-82.369 -97.084)" fill="#6c63ff"/>
      <path id="Path_1084" data-name="Path 1084" d="M201.425,194c-1.2,3.822-11.589,12.739-11.589,12.739s-3.451-13.267-2.268-17.107a7.254,7.254,0,0,1,13.831,4.335Z" transform="translate(-134.387 -125.367)" fill="#6c63ff"/>
      <path id="Path_1085" data-name="Path 1085" d="M272.748,254.184c-.531,3.971-9.267,14.516-9.267,14.516s-5.642-12.477-5.1-16.448a7.254,7.254,0,1,1,14.378,1.933Z" transform="translate(-179.561 -164.241)" fill="#6c63ff"/>
      <path id="Path_1086" data-name="Path 1086" d="M44.092,112.625c2.875,2.777,16.263,5.689,16.263,5.689s-3.276-13.293-6.159-16.084a7.254,7.254,0,1,0-10.1,10.41Z" transform="translate(-41.89 -71.52)" opacity="0.25"/>
      <path id="Path_1087" data-name="Path 1087" d="M58.536,175.353c3.927.779,16.743-4.073,16.743-4.073s-9.991-9.376-13.922-10.155a7.253,7.253,0,1,0-2.821,14.23Z" transform="translate(-48.76 -110.193)" opacity="0.25"/>
      <path id="Path_1088" data-name="Path 1088" d="M127.272,247.477c3.785-1.31,12.375-11.964,12.375-11.964s-13.351-3.054-17.133-1.743a7.254,7.254,0,1,0,4.732,13.708Z" transform="translate(-89.923 -156.277)" opacity="0.25"/>
      <path id="Path_1089" data-name="Path 1089" d="M199.258,288.078c3.953-.655,14.232-9.7,14.232-9.7s-12.641-5.267-16.594-4.615a7.255,7.255,0,0,0,2.362,14.315Z" transform="translate(-136.613 -181.886)" opacity="0.25"/>
      <path id="Path_1090" data-name="Path 1090" d="M120.042,147.783c0,4-7.243,15.626-7.243,15.626s-7.258-11.615-7.261-15.619a7.254,7.254,0,1,1,14.5,0Z" transform="translate(-82.369 -97.084)" opacity="0.25"/>
      <path id="Path_1091" data-name="Path 1091" d="M201.425,194c-1.2,3.822-11.589,12.739-11.589,12.739s-3.451-13.267-2.268-17.107a7.254,7.254,0,0,1,13.831,4.335Z" transform="translate(-134.387 -125.367)" opacity="0.25"/>
      <path id="Path_1092" data-name="Path 1092" d="M272.748,254.184c-.531,3.971-9.267,14.516-9.267,14.516s-5.642-12.477-5.1-16.448a7.254,7.254,0,1,1,14.378,1.933Z" transform="translate(-179.561 -164.241)" opacity="0.25"/>
      <path id="Path_1093" data-name="Path 1093" d="M226.833,176.518s-3.276-33.916-22.887-51.955a51.591,51.591,0,0,1-15.979-28.478A86.684,86.684,0,0,1,186.54,80.27" transform="translate(-133.89 -58.857)" fill="none" stroke="#535461" stroke-miterlimit="10" stroke-width="2"/>
      <path id="Path_1094" data-name="Path 1094" d="M151.849,31.414c1.5,3.716,12.568,11.778,12.568,11.778s2.384-13.486.888-17.2a7.259,7.259,0,0,0-13.467,5.423Z" transform="translate(-111.484 -21.441)" fill="#6c63ff"/>
      <path id="Path_1095" data-name="Path 1095" d="M139.628,94.64c3.276,2.3,16.951,3.057,16.951,3.057s-5.3-12.616-8.579-14.92a7.259,7.259,0,0,0-8.372,11.862Z" transform="translate(-102.098 -59.607)" fill="#6c63ff"/>
      <path id="Path_1096" data-name="Path 1096" d="M173.416,188.442c4,.339,16.175-5.918,16.175-5.918s-10.967-8.2-14.96-8.535a7.254,7.254,0,1,0-1.216,14.454Z" transform="translate(-121.214 -118.438)" fill="#6c63ff"/>
      <path id="Path_1097" data-name="Path 1097" d="M222.658,254.663c3.88,1,16.943-3.1,16.943-3.1s-9.424-9.937-13.3-10.941a7.254,7.254,0,1,0-3.64,14.043Z" transform="translate(-153.406 -160.694)" fill="#6c63ff"/>
      <path id="Path_1098" data-name="Path 1098" d="M206.892,94.618c-1.62,3.662-12.954,11.345-12.954,11.345s-1.929-13.555-.309-17.22a7.254,7.254,0,1,1,13.264,5.875Z" transform="translate(-137.986 -61.5)" fill="#6c63ff"/>
      <path id="Path_1099" data-name="Path 1099" d="M257.467,169.079c-2.643,3.01-15.757,6.952-15.757,6.952s2.213-13.511,4.859-16.521a7.251,7.251,0,1,1,10.9,9.569Z" transform="translate(-168.979 -107.686)" fill="#6c63ff"/>
      <path id="Path_1100" data-name="Path 1100" d="M301.914,253.479c-2.1,3.414-14.355,9.515-14.355,9.515s-.1-13.693,1.995-17.107a7.259,7.259,0,0,1,12.375,7.593Z" transform="translate(-198.139 -161.989)" fill="#6c63ff"/>
    </g>
    <ellipse id="Ellipse_138" data-name="Ellipse 138" cx="40.595" cy="5.285" rx="40.595" ry="5.285" transform="translate(107.962 299.422)" fill="#6c63ff" opacity="0.1"/>
    <g id="floor_flowers" data-name="floor flowers" transform="translate(53.192 280.794)">
      <ellipse id="Ellipse_139" data-name="Ellipse 139" cx="12.332" cy="2.111" rx="12.332" ry="2.111" transform="translate(1.035 21.395)" fill="#6c63ff" opacity="0.1"/>
      <path id="Path_1101" data-name="Path 1101" d="M222.515,792.94s2,2.617-.925,6.552-5.332,7.28-4.368,9.744c0,0,4.408-7.334,8.008-7.436S226.468,797.352,222.515,792.94Z" transform="translate(-206.469 -792.94)" fill="#6c63ff"/>
      <path id="Path_1102" data-name="Path 1102" d="M222.727,792.94a3.215,3.215,0,0,1,.408.823c3.5,4.113,5.369,7.953,2,8.048-3.134.091-6.9,5.7-7.8,7.112a3.368,3.368,0,0,0,.106.324s4.408-7.334,8.008-7.436S226.68,797.352,222.727,792.94Z" transform="translate(-206.681 -792.94)" opacity="0.1"/>
      <path id="Path_1103" data-name="Path 1103" d="M241.542,801.058c0,.921-.1,1.667-.229,1.667s-.233-.728-.233-1.667.131-.488.258-.488S241.542,800.137,241.542,801.058Z" transform="translate(-221.78 -797.724)" fill="#ffd037"/>
      <path id="Path_1104" data-name="Path 1104" d="M243.1,804.014c-.808.44-1.514.706-1.576.593s.546-.561,1.354-1,.488-.12.55,0S243.907,803.574,243.1,804.014Z" transform="translate(-222.059 -799.581)" fill="#ffd037"/>
      <path id="Path_1105" data-name="Path 1105" d="M195.274,792.94s-2,2.617.924,6.552,5.332,7.28,4.368,9.744c0,0-4.408-7.334-8.008-7.436S191.329,797.352,195.274,792.94Z" transform="translate(-189.791 -792.94)" fill="#6c63ff"/>
      <path id="Path_1106" data-name="Path 1106" d="M195.26,792.94a3.214,3.214,0,0,0-.408.823c-3.5,4.113-5.369,7.953-2,8.048,3.138.091,6.9,5.7,7.8,7.112a2.579,2.579,0,0,1-.106.324s-4.408-7.334-8.008-7.436S191.315,797.352,195.26,792.94Z" transform="translate(-189.778 -792.94)" opacity="0.1"/>
      <path id="Path_1107" data-name="Path 1107" d="M192.91,801.058c0,.921.1,1.667.229,1.667s.233-.728.233-1.667-.131-.488-.258-.488S192.91,800.137,192.91,801.058Z" transform="translate(-191.143 -797.724)" fill="#ffd037"/>
      <path id="Path_1108" data-name="Path 1108" d="M188.549,804.014c.808.44,1.511.706,1.572.593s-.546-.561-1.354-1-.488-.12-.55,0S187.741,803.574,188.549,804.014Z" transform="translate(-188.057 -799.581)" fill="#ffd037"/>
      <path id="Path_1109" data-name="Path 1109" d="M194.66,831.519s5.591-.175,7.28-1.372,8.6-2.635,9.016-.71,8.4,9.569,2.089,9.62-14.665-.983-16.346-2.006S194.66,831.519,194.66,831.519Z" transform="translate(-192.257 -815.555)" fill="#a8a8a8"/>
      <path id="Path_1110" data-name="Path 1110" d="M213.154,843.656c-6.311.051-14.665-.983-16.346-2.006-1.281-.783-1.791-3.582-1.962-4.87h-.186s.364,4.506,2.035,5.533,10.035,2.057,16.346,2.006c1.82,0,2.453-.662,2.417-1.623C215.207,843.284,214.512,843.645,213.154,843.656Z" transform="translate(-192.257 -820.823)" opacity="0.2"/>
      <path id="Path_1111" data-name="Path 1111" d="M683.623,836.175s-15.389-.928-13.573,9.857a2.623,2.623,0,0,0,1.365,2.77s.029-.8,1.58-.528a7.048,7.048,0,0,0,1.671.08,3.457,3.457,0,0,0,2.046-.844h0s4.324-1.784,6.006-8.856c0,0,1.245-1.543,1.2-1.94l-2.6,1.092a4.658,4.658,0,0,1,.189,3.432s-.084-3.363-.582-3.276c-.1,0-1.35.648-1.35.648s1.529,3.276.364,5.634c0,0,.437-4-.852-5.4l-1.82,1.066s1.784,3.371.575,6.122c0,0,.309-4.219-.957-5.864l-1.656,1.292s1.674,3.323.652,5.605c0,0-.131-4.91-1.012-5.281a9.53,9.53,0,0,0-1.671,1.82s1.147,2.41.437,3.683c0,0-.437-3.276-.8-3.276a10.815,10.815,0,0,0-1.594,3.64,7.925,7.925,0,0,1,1.245-3.862,4.346,4.346,0,0,0-2.209,1.147s.226-1.532,2.548-1.667a9.966,9.966,0,0,1,1.514-1.743,9.475,9.475,0,0,0-3.742.429s1.241-1.456,4.168-.79l1.634-1.332s-3.065-.422-4.368.044c0,0,1.5-1.281,4.808-.364l1.784-1.063a16.24,16.24,0,0,0-4.175-.364s1.645-.888,4.7.073l1.274-.571s-1.918-.364-2.479-.433-.59-.215-.59-.215a6.647,6.647,0,0,1,3.6.4A16.2,16.2,0,0,0,683.623,836.175Z" transform="translate(-494.518 -820.425)" fill="#6c63ff"/>
      <ellipse id="Ellipse_140" data-name="Ellipse 140" cx="10.89" cy="1.842" rx="10.89" ry="1.842" transform="translate(167.615 27.473)" fill="#6c63ff" opacity="0.1"/>
      <path id="Path_1112" data-name="Path 1112" d="M620.024,837.77s-8.677-.524-7.644,5.558a1.485,1.485,0,0,0,.772,1.561s0-.451.892-.3a4.25,4.25,0,0,0,.939.047,1.991,1.991,0,0,0,1.154-.477h0s2.439-1.008,3.389-4.994c0,0,.7-.87.673-1.092l-1.456.622a2.638,2.638,0,0,1,.106,1.936s-.047-1.9-.328-1.853c-.058,0-.761.364-.761.364a4.318,4.318,0,0,1,.211,3.177s.244-2.268-.48-3.047l-1.03.6a4.556,4.556,0,0,1,.324,3.451s.175-2.38-.542-3.305l-.932.728s.943,1.875.364,3.159c0,0-.076-2.77-.571-2.977a5.7,5.7,0,0,0-.943,1.015s.648,1.361.247,2.078c0,0-.247-1.845-.448-1.853a6.116,6.116,0,0,0-.9,2.06,4.423,4.423,0,0,1,.7-2.184,2.447,2.447,0,0,0-1.245.644s.127-.866,1.456-.939a5.517,5.517,0,0,1,.852-.983,5.334,5.334,0,0,0-2.111.24,2.371,2.371,0,0,1,2.351-.444l.921-.754a7.587,7.587,0,0,0-2.461.026,2.971,2.971,0,0,1,2.712-.2l1-.6a8.99,8.99,0,0,0-2.351-.2,3.619,3.619,0,0,1,2.646.04l.728-.32s-1.092-.215-1.394-.248-.335-.12-.335-.12a3.755,3.755,0,0,1,2.031.226A8.575,8.575,0,0,0,620.024,837.77Z" transform="translate(-457.879 -821.445)" fill="#6c63ff"/>
      <ellipse id="Ellipse_141" data-name="Ellipse 141" cx="6.14" cy="1.037" rx="6.14" ry="1.037" transform="translate(150.028 22.938)" fill="#6c63ff" opacity="0.1"/>
      <path id="Path_1113" data-name="Path 1113" d="M662.581,802.356s-10.472-.633-9.238,6.708a1.791,1.791,0,0,0,.932,1.885s0-.542,1.074-.364a5.166,5.166,0,0,0,1.136.055,2.4,2.4,0,0,0,1.394-.575h0s2.945-1.216,4.088-6.031c0,0,.848-1.048.815-1.318l-1.769.753a3.182,3.182,0,0,1,.131,2.337s-.058-2.289-.4-2.235c-.066,0-.917.44-.917.44s1.041,2.224.255,3.836c0,0,.3-2.737-.579-3.676l-1.245.728s1.216,2.293.393,4.168c0,0,.211-2.872-.655-4l-1.128.877s1.143,2.26.448,3.815c0,0-.091-3.341-.692-3.6a6.85,6.85,0,0,0-1.136,1.227s.783,1.642.295,2.508c0,0-.295-2.224-.539-2.235a7.306,7.306,0,0,0-1.092,2.486,5.355,5.355,0,0,1,.844-2.628,2.959,2.959,0,0,0-1.5.779s.153-1.045,1.747-1.136a6.845,6.845,0,0,1,1.03-1.187,6.481,6.481,0,0,0-2.548.295,2.856,2.856,0,0,1,2.839-.539l1.114-.906a9.155,9.155,0,0,0-2.974.029s1.019-.87,3.276-.237l1.212-.728a11.942,11.942,0,0,0-2.839-.244,4.357,4.357,0,0,1,3.2.047l.866-.386s-1.307-.258-1.689-.3-.4-.146-.4-.146a4.525,4.525,0,0,1,2.45.273A10.678,10.678,0,0,0,662.581,802.356Z" transform="translate(-483.923 -798.92)" fill="#6c63ff"/>
      <ellipse id="Ellipse_142" data-name="Ellipse 142" cx="7.414" cy="1.252" rx="7.414" ry="1.252" transform="translate(164.034 11.418)" fill="#6c63ff" opacity="0.1"/>
    </g>
    <g id="browser" transform="translate(49.768 34.763)">
      <path id="Path_1114" data-name="Path 1114" d="M524.925,295.035V117H178.65V284.822a68.937,68.937,0,0,0,15.287,9.347q4.1,1.889,8.372,3.454H520.794Z" transform="translate(-178.65 -117)" fill="url(#linear-gradient)"/>
      <path id="Path_1115" data-name="Path 1115" d="M525.579,304.012V131H180.73V294.1a69.641,69.641,0,0,0,15.214,9.1q4.084,1.82,8.343,3.356H521.455Z" transform="translate(-179.973 -125.904)" fill="#fff"/>
      <rect id="Rectangle_335" data-name="Rectangle 335" width="344.845" height="9.151" transform="translate(0.761 0.506)" fill="#5a5773"/>
    </g>
    <g id="buttons" transform="translate(55.05 37.478)">
      <circle id="Ellipse_143" data-name="Ellipse 143" cx="2.366" cy="2.366" r="2.366" fill="#fff"/>
      <circle id="Ellipse_144" data-name="Ellipse 144" cx="2.366" cy="2.366" r="2.366" transform="translate(6.37)" fill="#fff"/>
      <circle id="Ellipse_145" data-name="Ellipse 145" cx="2.366" cy="2.366" r="2.366" transform="translate(12.739)" fill="#fff"/>
    </g>
    <g id="boxes" transform="translate(59.782 64.529)">
      <rect id="Rectangle_336" data-name="Rectangle 336" width="56.963" height="35.794" transform="translate(78.872)" fill="#6c63ff"/>
      <rect id="Rectangle_337" data-name="Rectangle 337" width="56.963" height="35.794" fill="#5a5773" opacity="0.2"/>
      <rect id="Rectangle_338" data-name="Rectangle 338" width="56.963" height="35.794" transform="translate(157.743)" fill="#5a5773" opacity="0.2"/>
      <rect id="Rectangle_339" data-name="Rectangle 339" width="56.963" height="35.794" transform="translate(0 51.172)" fill="#5a5773" opacity="0.2"/>
      <rect id="Rectangle_340" data-name="Rectangle 340" width="56.963" height="35.794" transform="translate(78.872 51.172)" fill="#5a5773" opacity="0.2"/>
      <rect id="Rectangle_341" data-name="Rectangle 341" width="56.963" height="35.794" transform="translate(157.743 51.172)" fill="#5a5773" opacity="0.2"/>
      <rect id="Rectangle_342" data-name="Rectangle 342" width="56.963" height="35.794" transform="translate(0 102.341)" fill="#5a5773" opacity="0.2"/>
      <rect id="Rectangle_343" data-name="Rectangle 343" width="56.963" height="35.794" transform="translate(78.872 102.341)" fill="#5a5773" opacity="0.2"/>
      <rect id="Rectangle_344" data-name="Rectangle 344" width="56.963" height="35.794" transform="translate(157.743 102.341)" fill="#5a5773" opacity="0.2"/>
    </g>
    <g id="woman" transform="translate(125.422 73.468)">
      <path id="Path_1116" data-name="Path 1116" d="M446.51,304.092s-10.232-18.7-8.506-21.744a41.444,41.444,0,0,0,3-7.447s3.778-2.584,3.778-3.64,2.992-3.5,4.568-4.561.786-6.082,0-6.69a13.864,13.864,0,0,1-2.035-2.737s1.092-3.039,0-3.953.16-1.82,0-2.737a36.728,36.728,0,0,1,0-4.255,6.859,6.859,0,0,0-4.026-2.912l-.116-.48L442.5,240.1s3.276-6.279-2.038-9.565a8.879,8.879,0,0,0-1.176-.619,4.081,4.081,0,0,0-.029-.411,25.722,25.722,0,0,0-.772-4.808c-.277-.881-.637-1.474-1.092-1.339a.728.728,0,0,0-.3.171,3.321,3.321,0,0,0-.564.666h0a.149.149,0,0,1-.025.04,11.415,11.415,0,0,0-1.252,3.476,20.081,20.081,0,0,0-.364,2.184,12.012,12.012,0,0,0-.608,1.35c-.644,1.671-1.4,4.564-.025,6.7,1.165,1.82,2.734,4.32,3.873,6.14l.036.058.069.113-.12.076v.28l.106,1.532.881,13.242a5.62,5.62,0,0,0-.808-.171,7.338,7.338,0,0,0-1.176-.076c-.768-3.017-2.876-5.824-3.276-8.976a8.316,8.316,0,0,1-.062-.95c.033-1.984.528-3.975.488-5.955,0-.364,0-.728-.036-1.092h0a2.919,2.919,0,0,0-.029-.3,8.95,8.95,0,0,0-4.866-6.781c-.914-.455-1.9-.757-2.792-1.256-2.053-1.15-3.367-3.225-5.23-4.648a5.79,5.79,0,0,0-5-1.092,23.114,23.114,0,0,0-2.435.5h0a21.967,21.967,0,0,0-5.573,2.315c-.237.142-.473.288-.7.455a3.079,3.079,0,0,0-1.125,1.314,3.443,3.443,0,0,0-.175,1.416c0,.346,0,.7.022,1.045-.1,5.824-6.377,10.33-6.894,16.015,0,.135-.022.269-.029.4v.622h0v.455c.091,2.493,1.387,4.816,1.623,7.3.022.222.033.44.036.662a11.006,11.006,0,0,1-.644,3.341,9.78,9.78,0,0,0-2.26.917c-1.907,1.227-5.351,3.345-6.606,7.4a10.833,10.833,0,0,0-.477,3.247,67.8,67.8,0,0,1-1.063,11.593,21.67,21.67,0,0,1-.67,2.85.669.669,0,0,0-.022.28l-.757,9.828-.135,1.729-.189,2.461s.055.149.135.4a11.576,11.576,0,0,1,.3,1.136,6.108,6.108,0,0,1,.1,2.548,1.755,1.755,0,0,1-.531.935.394.394,0,0,0-.062.069,7.559,7.559,0,0,0-.575,2.5c-.066.51-.127,1.092-.189,1.7-.364,3.876-.59,9.678-.728,14.476-.131,4.732-.178,8.47-.178,8.47a9.658,9.658,0,0,0,1.955.968c-.051.127-.106.258-.156.4a19.121,19.121,0,0,0-1.187,5c-.306,3.578.7,7.553,5.685,9.6a8.043,8.043,0,0,0,.979.335,3.105,3.105,0,0,0,2.49-.153c0,.215.026.422.036.63.051.888.095,1.7.116,2.38.156,4.259,1.212,11.706,1.212,11.706a15.5,15.5,0,0,1,.047,3.953,21.466,21.466,0,0,0,0,4.561s1.092,1.82,0,2.737-1.416,5.46-1.092,6.082a.2.2,0,0,1,.018.069c.24,1.511-1.117,23.954-1.117,23.954s-1.285,3.436-2.308,7c-1,3.472-1.747,7.069-.823,7.742a7.727,7.727,0,0,0,2.879.779c0,.149-.022.3-.036.451a12.969,12.969,0,0,1-.637,3.771c-.433.619-.888,5.416-1.11,8.008l-.022.288a26.832,26.832,0,0,0-1.172,3.4s-3.483,8.736-2.3,11a1.86,1.86,0,0,0,.433.535h0a.984.984,0,0,0,.113.1c1.678,1.343,5.882,1.623,7.407,1.685l-.058,2.162v.08h1.984v-.055c0-.273.044-1.525.109-3.2,0-.3.022-.611.036-.932,0-.251.025-.506.036-.768a13.467,13.467,0,0,0,.863-4.859,21.32,21.32,0,0,1,.764-5.634,15.651,15.651,0,0,1,1.008-2.748,12.546,12.546,0,0,0-.244-5.594,4.041,4.041,0,0,0-.728-1.259c0-.076,0-.153,0-.233v-.5a21,21,0,0,1,.466-4.666.513.513,0,0,1,0-.073c.029-.127.062-.248.095-.364l.022-.08.644.022c1.976.055,3.429.055,3.429.055s1.576-8.059,1.419-11.553v-.473a45,45,0,0,1,.954-8.193l1.27-12.321a6.48,6.48,0,0,1,0-3.64c.389-.939,1.194-2.683,1.754-3.884.262-.557.47-.994.557-1.183l.051-.1a2.356,2.356,0,0,1-.561-.28h0c-.513-.342-.972-1.012.564-2,2.362-1.521,1.576-5.321,1.576-5.321a2.732,2.732,0,0,1,.124-2.584c.819-1.216,0-5.776,0-5.776a19.1,19.1,0,0,0,1.616-3.8c.586-1.82,2.067-10.719,2.766-15.011.229-1.409.364-2.319.364-2.319l.022.222.022.24h0l.2,2.027.026.269.364,3.833s.728,10.075.273,14.024v.073a4.667,4.667,0,0,1-.266,1.2c-.837,1.893-.684,9.413-.641,11.076v.335a6.7,6.7,0,0,0-.444,2.57h0a1.649,1.649,0,0,0,.288.764,1.936,1.936,0,0,1,.28,1.183v.036a4.305,4.305,0,0,1-.044.524,9.995,9.995,0,0,1-.553,2.06s-.844,2.22-.524,3.381h0a1.069,1.069,0,0,0,.207.411.972.972,0,0,1,.12.437.157.157,0,0,0,0,.04c.295,2.45-.466,13.264-.917,19.182-.182,2.337-.313,3.909-.313,3.909l-1.248,12.921.124.087c.142.1.408.277.764.488v.029l-.055.389c-.178,1.245-.419,2.693-.681,3.8-.022.084-.04.164-.062.24a3.483,3.483,0,0,0-1.336.535c-2.65,4.706-1.478,8.437,0,9.522a3.825,3.825,0,0,1,.892,2.224l.364,4.692v.539a1.4,1.4,0,0,0,.069.43l.113,1.423.153,1.98h1.208v-2.4h.066c1.907.066,4.983.146,6.322.04h.036a2.36,2.36,0,0,0,.364-.04.912.912,0,0,0,.211-.058c.71-.342,2.479-5.358.884-6.5s-1.947-4.368-1.947-4.368c-.138-.422-.277-.823-.419-1.2v-.248a20.02,20.02,0,0,1,.189-4.171,31.726,31.726,0,0,0,.415-4.983v-.462a6.21,6.21,0,0,0,.812-.266l.058-.025a5.721,5.721,0,0,0,1.358-.8L430,408.238l.47-2.3,2.675-13.063s-.943-4.561,0-5.318c.346-.277.44-1.456.419-2.821-.036-2.388-.419-5.391-.419-5.391s1.259-1.976,1.893-3.192,0-4.408,0-4.408l1.241-7.309a69.072,69.072,0,0,1,4.881-15.964c2.548-5.369.925-19.866-.728-27.583-.044-.2-.087-.4-.131-.586v-.029c.779-.386,1.733-.852,2.752-1.339l.386-.182c1.292-.608,2.661-1.234,3.887-1.754l.08-.033a27.152,27.152,0,0,1,2.7-1.012,4.539,4.539,0,0,1,.83-.171C453.124,315.645,446.51,304.092,446.51,304.092Zm-49.251,24.733h.655c-.076.142-.149.288-.222.433-.044.087-.087.171-.127.258-.24.5-.462,1.008-.644,1.507.073-.539.164-1.125.266-1.751C397.212,329.134,397.238,328.97,397.259,328.825Zm-1.769,9.489a.265.265,0,0,0,0-.051l-.055-.171c-.04-.116-.076-.233-.113-.364q.339-.1.688-.229h.047v.12c-.018.171-.04.342-.062.51h0a.367.367,0,0,1,0,.066,3.535,3.535,0,0,1-.047.4c-.033.262-.065.517-.095.761-.069-.229-.138-.455-.211-.677A1.727,1.727,0,0,1,395.49,338.314Z" transform="translate(-386.5 -223.338)" fill="url(#linear-gradient-2)"/>
      <path id="Path_1117" data-name="Path 1117" d="M523.833,247.037l-3.931,1.39-1.427-2.366c-1.092-1.82-2.606-4.31-3.724-6.119-1.973-3.181.608-8.029.608-8.029s.466-4.866,2.126-6.366,2.122,6.366,2.122,6.366c6.665,3.028,3.094,10.151,3.094,10.151l.648,2.825Z" transform="translate(-467.598 -224.622)" fill="#ae6e79"/>
      <path id="Path_1118" data-name="Path 1118" d="M531.638,280.938l-3.931,1.39-1.427-2.366v-.207a6.846,6.846,0,0,1,4.881-.965Z" transform="translate(-475.402 -258.524)" opacity="0.1"/>
      <path id="Path_1119" data-name="Path 1119" d="M523.56,297.672l1.969-1.667-.986-15a6.233,6.233,0,0,1,8.867,1.969,38.3,38.3,0,0,0,0,4.244c.153.91-1.059,1.82,0,2.726s0,3.942,0,3.942a13.684,13.684,0,0,0,1.955,2.726c.757.6,1.518,5.609,0,6.668S531,306.765,531,307.824s-3.64,3.64-3.64,3.64l-3.2-4.226Z" transform="translate(-473.672 -259.315)" fill="#ff6484"/>
      <path id="Path_1120" data-name="Path 1120" d="M396.911,545.161c-7.345-3.116-5.715-10.727-4.331-14.559a19.832,19.832,0,0,1,.972-2.271l4.12-2.5s.841,2.144,1.74,5.019C401.5,537.539,403.9,548.128,396.911,545.161Z" transform="translate(-389.609 -415.728)" fill="#ae6e79"/>
      <path id="Path_1121" data-name="Path 1121" d="M417.5,766.29a12.373,12.373,0,0,0-1.092,3.065,22.133,22.133,0,0,0-.473,5.216c.029,1.212.131,2.006.131,2.006L407.88,782.2s.047-.659.127-1.627c.211-2.577.652-7.36,1.066-7.979a13.28,13.28,0,0,0,.615-3.756c.127-1.6.178-3.006.178-3.006S419.713,762.145,417.5,766.29Z" transform="translate(-400.098 -567.413)" fill="#ae6e79"/>
      <path id="Path_1122" data-name="Path 1122" d="M473.38,779.529s0,1.565-.058,3.385a34.67,34.67,0,0,1-.4,4.968,20.45,20.45,0,0,0-.186,4.157c.055,1.82.186,3.458.186,3.458s-8.353-7.9-7.5-8.525a3.87,3.87,0,0,0,.662-1.736c.255-1.092.484-2.548.655-3.785.2-1.474.331-2.661.331-2.661Z" transform="translate(-436.658 -576.615)" fill="#ae6e79"/>
      <path id="Path_1123" data-name="Path 1123" d="M420.689,766.29a12.375,12.375,0,0,0-1.092,3.065,66.857,66.857,0,0,1-6.7-.513c.124-1.565.178-3.006.178-3.006S422.906,762.145,420.689,766.29Z" transform="translate(-403.291 -567.413)" opacity="0.1"/>
      <path id="Path_1124" data-name="Path 1124" d="M475.789,779.542s0,1.565-.058,3.385c-2.606.666-5.285-.666-6.581-1.456.2-1.474.331-2.661.331-2.661Z" transform="translate(-439.067 -576.627)" opacity="0.1"/>
      <path id="Path_1125" data-name="Path 1125" d="M451.636,511.309a70.693,70.693,0,0,0-4.7,15.913l-1.212,7.28s.608,3.181,0,4.393-1.82,3.185-1.82,3.185.91,7.425,0,8.182,0,5.3,0,5.3l-3.032,15.287-4.244,19.7c-4.091,3.338-9.536-.906-9.536-.906l1.2-12.881s1.82-22.567,1.063-23.492.3-3.789.3-3.789,1.063-2.73.306-3.789.149-3.334.149-3.334-.3-9.245.608-11.367,0-15.247,0-15.247l-.364-4.088-.211-2.264-.018-.222s-.138.906-.364,2.311c-.67,4.277-2.1,13.14-2.661,14.963a19.487,19.487,0,0,1-1.554,3.789s.786,4.546,0,5.758a2.819,2.819,0,0,0-.12,2.577s.757,3.789-1.518,5.3,0,2.275,0,2.275-1.667,3.64-2.271,5.15a6.738,6.738,0,0,0,0,3.64l-1.212,12.273a44.4,44.4,0,0,0-.91,8.637c.153,3.487-1.365,11.516-1.365,11.516s-11.669,0-13.467-1.365,3-14.679,3-14.679,1.365-23.339,1.059-23.943,0-5.154,1.063-6.06,0-2.73,0-2.73a22.355,22.355,0,0,1,0-4.546,16.127,16.127,0,0,0-.047-3.942s-1.016-7.425-1.165-11.669-.91-13.788-.91-13.788.793-5.9.914-8.714a9.9,9.9,0,0,1,1.092-3.542,31.59,31.59,0,0,1,2.257-3.96s35.907-10.614,37.414-9.558c.4.28.983,2.184,1.558,4.939C452.524,491.508,454.089,505.959,451.636,511.309Z" transform="translate(-397.81 -385.814)" fill="#444053"/>
      <circle id="Ellipse_146" data-name="Ellipse 146" cx="10.457" cy="10.457" r="10.457" transform="translate(21.246 11.958)" fill="#a1616a"/>
      <path id="Path_1126" data-name="Path 1126" d="M460.372,483.817c-1.2.619-2.013,1.045-2.013,1.045s-16.973,8.033-21.8,7.578c-3.734-.364-13.267-.156-17.42-.055a31.6,31.6,0,0,1,2.257-3.96s35.911-10.61,37.417-9.555C459.215,479.158,459.8,481.055,460.372,483.817Z" transform="translate(-407.26 -385.814)" opacity="0.1"/>
      <path id="Path_1127" data-name="Path 1127" d="M417.826,326.131s-9.686,1.529-11.971,3.028-6.814,4.4-6.814,10.61a60.193,60.193,0,0,1-1.667,14.4c-.608,1.816,9.547,16.518,9.547,16.518l-3.64,22.279s14.559-.455,19.408,0,21.813-7.578,21.813-7.578,10-5.3,12.124-5.46-4.244-11.669-4.244-11.669-9.853-18.636-8.186-21.668a41.879,41.879,0,0,0,2.89-7.425l-1.82-15.455a5.945,5.945,0,0,0-5,.757c-2.275,1.667-10,.757-10,.757Z" transform="translate(-393.399 -287.017)" fill="#ff6484"/>
      <path id="Path_1128" data-name="Path 1128" d="M397.049,391.8l-3.8,1.059L392.2,407.121s1.365,3.789,0,5-1.667,27.128-1.667,27.128a9.91,9.91,0,0,0,9.547.757s-.757-2.879,1.518-13.336,2.271-15.76,2.271-15.76,0-13.034,1.063-15.156,0-7.425,0-7.425-2.122-2.879-1.973-3.938S397.049,391.8,397.049,391.8Z" transform="translate(-389.063 -325.711)" opacity="0.1"/>
      <path id="Path_1129" data-name="Path 1129" d="M401.492,530.879a9.679,9.679,0,0,1-6.832-.247,19.818,19.818,0,0,1,.972-2.271l4.12-2.5S400.607,528,401.492,530.879Z" transform="translate(-391.69 -415.747)" opacity="0.1"/>
      <path id="Path_1130" data-name="Path 1130" d="M396.425,391.775l-3.789,1.059L391.577,407.1s1.365,3.789,0,5-1.667,27.128-1.667,27.128a9.9,9.9,0,0,0,9.547.743s-.757-2.879,1.514-13.336,2.275-15.76,2.275-15.76,0-13.034,1.059-15.156,0-7.425,0-7.425-2.122-2.879-1.969-3.938S396.425,391.775,396.425,391.775Z" transform="translate(-388.669 -325.686)" fill="#ff6484"/>
      <path id="Path_1131" data-name="Path 1131" d="M500.891,411.15s-1.969,16.973-7.731,20.157C493.16,431.307,506.041,427.671,500.891,411.15Z" transform="translate(-454.338 -342.789)" opacity="0.1"/>
      <path id="Path_1132" data-name="Path 1132" d="M434.88,415.32s7.12,3.483,5.46,5.907S434.88,415.32,434.88,415.32Z" transform="translate(-417.271 -345.442)" opacity="0.1"/>
      <path id="Path_1133" data-name="Path 1133" d="M434.88,434.47s4.546,4.7,3.64,6.366S434.88,434.47,434.88,434.47Z" transform="translate(-417.271 -357.621)" opacity="0.1"/>
      <path id="Path_1134" data-name="Path 1134" d="M535.63,327.47a16.107,16.107,0,0,1,1.955,5C537.756,334.444,535.63,327.47,535.63,327.47Z" transform="translate(-481.349 -289.568)" opacity="0.1"/>
      <path id="Path_1135" data-name="Path 1135" d="M535.63,315.639s.9-.761,3.181,0S535.63,315.639,535.63,315.639Z" transform="translate(-481.349 -281.828)" opacity="0.1"/>
      <path id="Path_1136" data-name="Path 1136" d="M488.515,553.919a21.075,21.075,0,0,1-11.083-1.42l-1.911,4.892-.211-2.264c.313-1.9.921-3.935,2.122-4.448A18.394,18.394,0,0,0,488.515,553.919Z" transform="translate(-442.985 -431.533)" opacity="0.1"/>
      <path id="Path_1137" data-name="Path 1137" d="M426.18,577.07s9.322,1.933,11.935,1.591Z" transform="translate(-411.737 -448.317)" opacity="0.1"/>
      <path id="Path_1138" data-name="Path 1138" d="M428.84,583.753s3.978-.171,5.966.626Z" transform="translate(-413.429 -452.558)" opacity="0.1"/>
      <path id="Path_1139" data-name="Path 1139" d="M430.09,588.31a35.671,35.671,0,0,0,5.511.728Z" transform="translate(-414.224 -455.466)" opacity="0.1"/>
      <path id="Path_1140" data-name="Path 1140" d="M429.46,643.695c.171-.113,7.957-1.933,8.925-.626Z" transform="translate(-413.823 -489.995)" opacity="0.1"/>
      <path id="Path_1141" data-name="Path 1141" d="M429.46,651.551s6.763-.8,6.934,0S429.46,651.551,429.46,651.551Z" transform="translate(-413.823 -495.463)" opacity="0.1"/>
      <path id="Path_1142" data-name="Path 1142" d="M429.46,656.028s7.218-1.492,8.07-1.128S429.46,656.028,429.46,656.028Z" transform="translate(-413.823 -497.782)" opacity="0.1"/>
      <path id="Path_1143" data-name="Path 1143" d="M416.1,792.695l-8.182,5.627s.047-.659.127-1.627a22.058,22.058,0,0,1,4.189-6.839c1.845-.481,3.01-.036,3.734.833C416,791.9,416.1,792.695,416.1,792.695Z" transform="translate(-400.124 -583.527)" opacity="0.1"/>
      <path id="Path_1144" data-name="Path 1144" d="M410.814,798.141a20.307,20.307,0,0,0-1.707,8.372,12.983,12.983,0,0,1-1.733,6.737,6.638,6.638,0,0,1-.575.823s-5.685-.047-7.676-1.7a1.969,1.969,0,0,1-.535-.655c-1.139-2.271,2.217-10.967,2.217-10.967a24.149,24.149,0,0,1,5.34-10.286C412.517,788.82,410.814,798.141,410.814,798.141Z" transform="translate(-394.038 -583.918)" fill="#444053"/>
      <path id="Path_1145" data-name="Path 1145" d="M408.722,831.617a6.638,6.638,0,0,1-.575.823s-5.685-.047-7.676-1.7c.979-3.239,4.1-13.042,5.565-11.374C407.411,820.934,408.368,828.465,408.722,831.617Z" transform="translate(-395.385 -602.303)" opacity="0.1"/>
      <path id="Path_1146" data-name="Path 1146" d="M420.307,819.971l-.4,14.683h1.907s.309-12.881,1.161-14.683S420.307,819.971,420.307,819.971Z" transform="translate(-407.749 -602.297)" fill="#444053"/>
      <path id="Path_1147" data-name="Path 1147" d="M472.925,806.67s-8.353-7.9-7.5-8.524a3.871,3.871,0,0,0,.662-1.736c1.605-.28,4.368.389,6.654,6.8C472.794,805.032,472.925,806.67,472.925,806.67Z" transform="translate(-436.658 -587.788)" opacity="0.1"/>
      <path id="Path_1148" data-name="Path 1148" d="M470.438,815.883a.851.851,0,0,1-.2.058,59.346,59.346,0,0,1-6.632,0,1.434,1.434,0,0,1-1.387-1.431c0-.546,0-1.212-.044-1.922-.095-2.242-.364-4.91-1.168-5.511-1.423-1.092-2.548-4.8,0-9.489,0,0,4.885-3.731,8.408,7.483,0,0,.342,3.2,1.875,4.335S471.123,815.559,470.438,815.883Z" transform="translate(-432.923 -588.193)" fill="#444053"/>
      <path id="Path_1149" data-name="Path 1149" d="M474.912,832.445a59.316,59.316,0,0,1-6.632,0,1.434,1.434,0,0,1-1.387-1.43c0-.546,0-1.212-.044-1.922.615-2.715,1.5-5.511,2.639-6.148C469.5,822.941,472.943,822.552,474.912,832.445Z" transform="translate(-437.604 -604.696)" opacity="0.1"/>
      <path id="Path_1150" data-name="Path 1150" d="M423.46,798.761l.917,12.219h1.165V797.72Z" transform="translate(-394.756 -580.843)" fill="#444053"/>
      <path id="Path_1151" data-name="Path 1151" d="M436.94,239.092a20.9,20.9,0,0,0-9.325,3,3.875,3.875,0,0,0-1.758,1.765,5.851,5.851,0,0,0-.142,2.184c.1,6.268-6.89,11.01-6.672,17.275.087,2.486,1.336,4.8,1.565,7.28.382,4.135-2.064,7.938-4.408,11.364a9.412,9.412,0,0,0,6.643-2.2,50.372,50.372,0,0,1,.928,25.388h3.352a2.548,2.548,0,0,1,.979.12,2.46,2.46,0,0,1,.775.579c3.134,3.119,5.234,7.731,4.037,11.99l7.134-2.675a21.192,21.192,0,0,0,4.925-2.348,7.112,7.112,0,0,0,3.043-4.386c.193-1.092.131-2.4,1.03-3.028a5.6,5.6,0,0,1,1.4-.52c1.958-.692,2.825-2.956,3.225-4.994a28.757,28.757,0,0,0,.455-7.6c-.317-4.259-1.576-8.583-.539-12.739.586-2.333,1.889-4.506,1.995-6.916.171-3.971-2.934-7.392-3.4-11.342-.324-2.752.67-5.536.346-8.288a8.9,8.9,0,0,0-4.684-6.759c-.877-.451-1.82-.753-2.686-1.252-1.976-1.147-3.239-3.21-5.034-4.63s-4.783-1.955-6.133-.109Z" transform="translate(-405.39 -233.34)" opacity="0.1"/>
      <path id="Path_1152" data-name="Path 1152" d="M436.94,237.829a20.9,20.9,0,0,0-9.325,3,3.875,3.875,0,0,0-1.758,1.765,5.851,5.851,0,0,0-.142,2.184c.1,6.268-6.89,11.01-6.672,17.278.087,2.482,1.336,4.8,1.565,7.28.382,4.135-2.064,7.939-4.408,11.367a9.464,9.464,0,0,0,6.643-2.2,50.354,50.354,0,0,1,.928,25.381h3.352a2.549,2.549,0,0,1,.979.124,2.4,2.4,0,0,1,.775.575c3.134,3.123,5.234,7.731,4.037,11.99l7.134-2.675a21.192,21.192,0,0,0,4.925-2.348,7.112,7.112,0,0,0,3.043-4.386c.193-1.092.131-2.4,1.03-3.028a5.6,5.6,0,0,1,1.4-.521c1.958-.692,2.825-2.956,3.225-4.994a28.757,28.757,0,0,0,.466-7.6c-.317-4.259-1.576-8.583-.539-12.739.586-2.333,1.889-4.506,1.995-6.916.171-3.971-2.934-7.393-3.4-11.342-.324-2.752.67-5.533.346-8.288a8.91,8.91,0,0,0-4.684-6.759c-.877-.451-1.82-.753-2.686-1.248-1.977-1.15-3.24-3.214-5.034-4.633s-4.783-1.955-6.133-.109Z" transform="translate(-405.39 -232.532)" fill="#925978"/>
      <g id="Group_184" data-name="Group 184" transform="translate(10.81 10.727)" opacity="0.1">
        <path id="Path_1153" data-name="Path 1153" d="M442.282,252.81a4.048,4.048,0,0,0-.022.422C442.271,253.094,442.278,252.952,442.282,252.81Z" transform="translate(-432.775 -252.81)"/>
        <path id="Path_1154" data-name="Path 1154" d="M514.946,282.727a38.744,38.744,0,0,0,.4-5.787A41.876,41.876,0,0,0,514.946,282.727Z" transform="translate(-478.984 -268.157)"/>
        <path id="Path_1155" data-name="Path 1155" d="M425.568,307.621c-.211-2.257-1.263-4.368-1.51-6.621a8.3,8.3,0,0,0-.055,1.245c.087,2.457,1.307,4.754,1.554,7.2A9.822,9.822,0,0,0,425.568,307.621Z" transform="translate(-421.16 -283.46)"/>
        <path id="Path_1156" data-name="Path 1156" d="M518.306,332.811a15.608,15.608,0,0,0-.364,4.521,13.71,13.71,0,0,1,.364-2.624c.586-2.333,1.889-4.506,1.995-6.916a7.5,7.5,0,0,0-.058-1.281C519.958,328.676,518.826,330.692,518.306,332.811Z" transform="translate(-480.888 -299.684)"/>
        <path id="Path_1157" data-name="Path 1157" d="M422.843,344.36a9.464,9.464,0,0,1-5.372,2.184c-.415.648-.844,1.281-1.27,1.907a9.463,9.463,0,0,0,6.643-2.2,50.23,50.23,0,0,1,2.118,13.631A50.341,50.341,0,0,0,422.843,344.36Z" transform="translate(-416.2 -311.037)"/>
        <path id="Path_1158" data-name="Path 1158" d="M482.912,391.674c-.4,2.038-1.267,4.3-3.225,4.99a5.459,5.459,0,0,0-1.4.524c-.9.633-.837,1.944-1.03,3.028a7.021,7.021,0,0,1-3.043,4.368,21.884,21.884,0,0,1-4.925,2.351l-6.807,2.548a9.393,9.393,0,0,1-.328,2.02l7.134-2.675a21.193,21.193,0,0,0,4.925-2.348,7.111,7.111,0,0,0,3.043-4.386c.193-1.092.131-2.395,1.03-3.028a5.606,5.606,0,0,1,1.4-.521c1.958-.692,2.825-2.956,3.225-4.994a28.548,28.548,0,0,0,.513-6.443A28.5,28.5,0,0,1,482.912,391.674Z" transform="translate(-445.425 -338.227)"/>
        <path id="Path_1159" data-name="Path 1159" d="M442.162,414.763a2.406,2.406,0,0,0-.775-.579,2.6,2.6,0,0,0-.979-.124h-2.974c-.116.633-.24,1.267-.364,1.9h3.352a2.548,2.548,0,0,1,.979.124,2.394,2.394,0,0,1,.775.575,14.42,14.42,0,0,1,4.328,8.525C446.872,421.4,444.914,417.515,442.162,414.763Z" transform="translate(-429.474 -355.364)"/>
      </g>
      <path id="Path_1160" data-name="Path 1160" d="M405.37,449.2s2.708-1.136,3.312,0S405.37,449.2,405.37,449.2Z" transform="translate(-398.502 -366.668)" opacity="0.1"/>
      <path id="Path_1161" data-name="Path 1161" d="M408,454.548s2.708-1.136,3.316,0S408,454.548,408,454.548Z" transform="translate(-400.174 -370.07)" opacity="0.1"/>
    </g>
    <g id="leaves" transform="translate(261.138 3.118)">
      <path id="Path_1162" data-name="Path 1162" d="M847.531,51.649s-13.85-.834-12.215,8.87a2.367,2.367,0,0,0,1.23,2.493s.026-.728,1.42-.477a6.374,6.374,0,0,0,1.5.073,3.119,3.119,0,0,0,1.834-.761h0s3.891-1.605,5.405-7.968c0,0,1.121-1.39,1.092-1.747l-2.337,1a4.188,4.188,0,0,1,.167,3.087s-.073-3.028-.524-2.956c-.091,0-1.212.582-1.212.582s1.372,2.937.335,5.074c0,0,.393-3.618-.764-4.859l-1.652.979s1.605,3.032.517,5.507c0,0,.28-3.8-.863-5.274l-1.492,1.161s1.51,2.974.6,5.027c0,0-.12-4.422-.914-4.754a9,9,0,0,0-1.5,1.623s1.03,2.184.389,3.312c0,0-.393-2.941-.728-2.956a9.8,9.8,0,0,0-1.434,3.276,7.1,7.1,0,0,1,1.117-3.476,3.884,3.884,0,0,0-1.987,1.034s.2-1.379,2.308-1.5a9.08,9.08,0,0,1,1.361-1.569,8.534,8.534,0,0,0-3.367.389s1.117-1.3,3.753-.728l1.456-1.2a12.559,12.559,0,0,0-3.931.04s1.347-1.15,4.328-.313l1.6-.957a14.379,14.379,0,0,0-3.753-.324s1.478-.8,4.222.066l1.147-.513s-1.725-.339-2.228-.393-.531-.193-.531-.193a5.955,5.955,0,0,1,3.236.364A14.711,14.711,0,0,0,847.531,51.649Z" transform="translate(-807.585 -43.779)" fill="#6c63ff" opacity="0.1"/>
      <path id="Path_1163" data-name="Path 1163" d="M802.9,30.06S791.25,37.6,798.315,44.445a2.369,2.369,0,0,0,2.468,1.281s-.408-.6.863-1.227a6.316,6.316,0,0,0,1.256-.834,3.134,3.134,0,0,0,1.03-1.7h0s2.184-3.6-.364-9.624c0,0,.08-1.784-.167-2.046l-1.289,2.184a4.189,4.189,0,0,1,1.966,2.384s-1.853-2.391-2.184-2.067c-.065.066-.633,1.19-.633,1.19s2.85,1.551,3.276,3.884c0,0-1.82-3.148-3.5-3.458l-.757,1.747s3.094,1.492,3.683,4.131c0,0-2.027-3.225-3.822-3.738l-.51,1.82s2.985,1.514,3.461,3.713c0,0-2.715-3.487-3.552-3.276a9.223,9.223,0,0,0-.247,2.184s2.118,1.136,2.279,2.439c0,0-2.06-2.137-2.326-1.958a9.818,9.818,0,0,0,.79,3.5,7.109,7.109,0,0,1-1.157-3.461,3.9,3.9,0,0,0-.99,2.009s-.655-1.23.972-2.577a9.966,9.966,0,0,1,.164-2.071,8.425,8.425,0,0,0-2.482,2.308s.131-1.711,2.6-2.8l.473-1.838a12.146,12.146,0,0,0-3.141,2.362s.4-1.725,3.3-2.817l.728-1.722a14.812,14.812,0,0,0-3.218,1.966s.728-1.521,3.443-2.45l.619-1.092s-1.591.75-2.027,1-.542.16-.542.16a5.966,5.966,0,0,1,2.821-1.627A14.47,14.47,0,0,0,802.9,30.06Z" transform="translate(-782.69 -30.06)" fill="#6c63ff" opacity="0.1"/>
      <path id="Path_1164" data-name="Path 1164" d="M761.844,54.133s-6.963,12.011,2.439,14.9a2.347,2.347,0,0,0,2.781,0s-.63-.342.215-1.481a6.376,6.376,0,0,0,.728-1.31,3.145,3.145,0,0,0,.149-1.984h0s.309-4.2-4.7-8.412c0,0-.728-1.623-1.092-1.743l-.156,2.548a4.2,4.2,0,0,1,2.835,1.234s-2.737-1.292-2.875-.859c-.029.087-.025,1.347-.025,1.347s3.272.1,4.728,1.984c0,0-3.057-1.976-4.684-1.5l.117,1.9s3.432-.073,5.154,2.013c0,0-3.276-1.955-5.1-1.6l.364,1.853s3.349,0,4.768,1.74c0,0-4-1.878-4.655-1.321a9,9,0,0,0,.775,2.071s2.4.051,3.137,1.139c0,0-2.806-.972-2.963-.688a9.811,9.811,0,0,0,2.293,2.755,7.109,7.109,0,0,1-2.6-2.548,3.9,3.9,0,0,0,.029,2.239s-1.143-.8-.306-2.737a9.144,9.144,0,0,1-.79-1.918,8.648,8.648,0,0,0-1.165,3.181s-.662-1.583,1.048-3.669l-.411-1.856a12.152,12.152,0,0,0-1.729,3.531s-.422-1.722,1.663-4l-.138-1.86a14.527,14.527,0,0,0-1.973,3.21s-.051-1.682,1.954-3.745l.055-1.256s-1.092,1.387-1.35,1.82-.411.371-.411.371a5.991,5.991,0,0,1,1.776-2.734A14.831,14.831,0,0,0,761.844,54.133Z" transform="translate(-759.363 -45.35)" fill="#6c63ff" opacity="0.1"/>
    </g>
    <path id="Path_1166" data-name="Path 1166" d="M919.681,328.578h-4.368V324.21h-3.276v4.368H907.67v3.276h4.368v4.368h3.276v-4.368h4.368Z" transform="translate(-577.3 -206.215)" fill="#fff"/>
  </g>
</svg>
