<svg id="Tech_icon" data-name="Tech icon" xmlns="http://www.w3.org/2000/svg" xmlns:xlink="http://www.w3.org/1999/xlink" width="429.29" height="234.142" viewBox="0 0 429.29 234.142">
  <defs>
    <linearGradient id="linear-gradient" x1="0.591" y1="0.938" x2="0.591" y2="0.047" gradientUnits="objectBoundingBox">
      <stop offset="0" stop-color="gray" stop-opacity="0.251"/>
      <stop offset="0.54" stop-color="gray" stop-opacity="0.122"/>
      <stop offset="1" stop-color="gray" stop-opacity="0.102"/>
    </linearGradient>
    <linearGradient id="linear-gradient-2" x1="0.507" y1="1.008" x2="0.507" y2="-0.026" xlink:href="#linear-gradient"/>
  </defs>
  <path id="Path_1167" data-name="Path 1167" d="M357.038,437.134c10.121,4.678,19.454,11.105,30,14.7,12.841,4.381,26.707,4.335,40.275,4.236l54.749-.384a84.584,84.584,0,0,1-52.8,40.412c-8.679,2.162-17.949,3.009-25.6,7.65-9.539,5.786-15.193,16.664-24.888,22.173-10.688,6.067-23.971,4.43-35.882,7.439-15.527,3.9-28.517,15.618-44.354,17.924-15.317,2.228-30.249-4.691-45.094-9.059-53.025-15.606-110.312,1.062-165.044-6.654-2.1-.3-4.344-.7-5.865-2.178-1.955-1.9-2.116-4.959-1.728-7.675,1.951-13.531,14.122-23.475,26.885-28.381,27.19-10.448,57.737-3.885,86.622-7.646,19.838-2.587,38.709-10.035,57.324-17.42,19.491-7.733,39.287-15.321,57.758-25.326C328.173,436.762,334.261,426.62,357.038,437.134Z" transform="translate(-52.776 -322.776)" fill="#6c63ff" opacity="0.1"/>
  <path id="Path_1168" data-name="Path 1168" d="M838.4,613.039s-.827,12.4.827,14.465c0,0-36.37,6.613-40.916,4.546s-2.48-5.373,0-6.613,14.878-5.786,16.532-14.465c0,0-5.373-2.48,11.985.827S838.4,613.039,838.4,613.039Z" transform="translate(-705.529 -426.851)" fill="#dc9ba3"/>
  <path id="Path_1169" data-name="Path 1169" d="M838.4,613.039s-.827,12.4.827,14.465c0,0-36.37,6.613-40.916,4.546s-2.48-5.373,0-6.613,14.878-5.786,16.532-14.465c0,0-5.373-2.48,11.985.827S838.4,613.039,838.4,613.039Z" transform="translate(-705.529 -426.851)" opacity="0.05"/>
  <path id="Path_1170" data-name="Path 1170" d="M466.9,199.48l.157.074a50.988,50.988,0,0,1,19.011,15.486c2.819,3.72,6.282,7.266,9.576,7.853,7.315,1.289,61.105,57.233,48.194,109.3s-88.234,54.216-88.234,54.216-16.019,2.715-25.211,8.146a17,17,0,0,1-14.362,1.38c-10.944-3.893-28.93-9.539-37.039-7.8-12.047,2.583-115.308-40.449-115.308-40.449s43.032-41.329,106.286-40.449c0,0,99.831-69.71,96.388-98.541Z" transform="translate(-192.198 -185.949)" fill="#6c63ff"/>
  <path id="Path_1171" data-name="Path 1171" d="M466.9,199.48l.157.074a50.988,50.988,0,0,1,19.011,15.486c2.819,3.72,6.282,7.266,9.576,7.853,7.315,1.289,61.105,57.233,48.194,109.3s-88.234,54.216-88.234,54.216-16.019,2.715-25.211,8.146a17,17,0,0,1-14.362,1.38c-10.944-3.893-28.93-9.539-37.039-7.8-12.047,2.583-115.308-40.449-115.308-40.449s43.032-41.329,106.286-40.449c0,0,99.831-69.71,96.388-98.541Z" transform="translate(-192.198 -185.949)" opacity="0.1"/>
  <path id="Path_1172" data-name="Path 1172" d="M474.781,199.24l10.332,9.919s7.853,15.292,14.879,16.532,58.687,54.968,46.289,104.976-84.725,52.075-84.725,52.075-15.052,2.55-23.909,7.654a17.2,17.2,0,0,1-14.345,1.4c-10.535-3.72-27.6-9.055-35.307-7.4-11.572,2.48-110.762-38.849-110.762-38.849s41.329-39.676,102.083-38.849c0,0,95.884-66.953,92.577-94.644Z" transform="translate(-200.153 -185.808)" fill="#6c63ff"/>
  <ellipse id="Ellipse_147" data-name="Ellipse 147" cx="32.592" cy="59.332" rx="32.592" ry="59.332" transform="translate(228.536 195.104) rotate(-135)" opacity="0.1"/>
  <path id="Path_1173" data-name="Path 1173" d="M491.643,326.24s-4.546,7.439-1.653,21.9-7.439,14.465-7.439,14.465H461.886l-7.026-18.185,9.919.827s6.613-1.653,3.72-16.945Z" transform="translate(-217.015 -260.32)" fill="#ffd2d9"/>
  <path id="Path_1174" data-name="Path 1174" d="M497.8,265.428c3.162,10.064,7.125,22.318,9.241,28.856l1.5,4.621,13.639-14.052s-.6-1.393-1.5-3.344c-2-4.323-5.472-11.378-7.183-11.948,0,0,19.011-1.24,24.8,3.306s4.133-12.4,4.133-12.4-11.159-.827-15.292-3.306S500.7,252.2,500.7,252.2,493.256,250.962,497.8,265.428Z" transform="translate(-285.168 -216.866)" fill="#ffd2d9"/>
  <path id="Path_1175" data-name="Path 1175" d="M471.388,566.51s-35.13-16.118-47.529-13.639" transform="translate(-183.948 -393.135)" opacity="0.1"/>
  <path id="Path_1176" data-name="Path 1176" d="M402.573,494.162S360,492.509,336.86,507.388" transform="translate(-79.177 -358.809)" opacity="0.1"/>
  <path id="Path_1177" data-name="Path 1177" d="M439.108,526.741s-33.477-8.266-51.248-5.373" transform="translate(-136.79 -374.443)" opacity="0.1"/>
  <path id="Path_1178" data-name="Path 1178" d="M841.86,575.893l2.893,21.078,7.439-.827s.451-.413,1.215-1.108a48.964,48.964,0,0,1,10.167-7.109,12.453,12.453,0,0,1,4.323-1.289l-8.266-12.4a45.671,45.671,0,0,1-6.17,1.827,29.779,29.779,0,0,1-6.646.785A12.133,12.133,0,0,1,841.86,575.893Z" transform="translate(-753.213 -405.824)" fill="#ffd2d9"/>
  <path id="Path_1179" data-name="Path 1179" d="M547.092,511.25c3.72,3.306,20.665-3.72,23.558,7.026l2.662-10.192,8.2-31.365,1.128-4.319,6.828-.293,78.352-3.344,4.447-.182,2.339-.1-3.1-1.537L650.832,456.7s-7.439-.521-17.71-1.93h0c-15.565-2.133-37.61-6.3-50.058-13.771-20.665-12.4-28.517,29.344-28.517,29.344s-3.141,10.593-5.538,21.028a117.774,117.774,0,0,0-2.48,13.663C546.179,508.217,546.286,510.535,547.092,511.25Z" transform="translate(-437.781 -326.302)" fill="#e9e9ef"/>
  <path id="Path_1180" data-name="Path 1180" d="M550.113,511.239c3.72,3.306,20.665-3.72,23.558,7.026l2.662-10.192,8.2-31.365,1.128-4.319,7.026-.413L668.4,467.3l4.674-.289,1.438-.087,1.864-.116-22.524-10.126s-7.439-.521-17.71-1.93h0c-15.565-2.133-37.61-6.3-50.058-13.771-20.665-12.4-28.517,29.344-28.517,29.344s-3.141,10.593-5.538,21.028a117.764,117.764,0,0,0-2.48,13.663C549.2,508.2,549.307,510.524,550.113,511.239Z" transform="translate(-440.802 -326.291)" opacity="0.05"/>
  <path id="Path_1181" data-name="Path 1181" d="M841.83,576.067l7.233,8.481,2.893,3.381a12.453,12.453,0,0,1,4.323-1.289l-8.266-12.4A45.659,45.659,0,0,1,841.83,576.067Z" transform="translate(-741.582 -405.824)" opacity="0.1"/>
  <path id="Path_1182" data-name="Path 1182" d="M510.139,518.718l8.088,9.481,3.9,4.571v1.24c4.769,1.1,19.635-2.033,22.913-2.753.413-.087.645-.141.645-.141,9.506.413,44.636-20.251,44.636-20.251s38.436,6.613,57.034,4.96c10.386-.926,13.3-4.683,13.841-7.824a8.15,8.15,0,0,0-.616-4.575l-16.59-11.671-2.2-1.55-3.517-2.48s-6.113-1.385-13.878-3.1h0c-12.13-2.674-28.3-6.15-31.571-6.4-5.373-.413-19.011,4.133-26.864,13.225a23.208,23.208,0,0,1-4.546,3.72l-.215.141c-2.207,1.463-4.926,3.021-7.956,4.612-10.006,5.269-23.343,10.927-32.514,14.643C514.457,517.081,510.139,518.718,510.139,518.718Z" transform="translate(-409.506 -349.475)" fill="#e9e9ef"/>
  <path id="Path_1183" data-name="Path 1183" d="M876.92,578.24l2.893,21.078,7.439-.827s.45-.413,1.215-1.108c-1.653.037-4.364-.438-4.935-3.852,0,0,2.864-10.022-1.653-14.333A12.13,12.13,0,0,1,876.92,578.24Z" transform="translate(-788.273 -408.171)" opacity="0.1"/>
  <path id="Path_1184" data-name="Path 1184" d="M916.576,592.358s4.133-14.465-5.373-16.118l-15.705,6.2-18.185,1.24s-4.749,7.753,2.864,16.432a23.38,23.38,0,0,0,16.532,7.853l19.871.93,6.2-12.812S917.4,597.318,916.576,592.358Z" transform="translate(-822.143 -406.997)" fill="#dc9ba3"/>
  <path id="Path_1185" data-name="Path 1185" d="M510.169,477.57c2.066.608,10.7,3.182,19.524,6.679h0a108.746,108.746,0,0,1,12.721,5.865c.856.479,1.653.963,2.438,1.451a21.039,21.039,0,0,1,5.331,4.464c5.1,6.613,12.593,10.15,16.321,11.6a8.15,8.15,0,0,0-.616-4.575l-16.577-11.667,2.339-.1-3.1-1.537,1.864-.116-22.524-10.126S520.435,478.988,510.169,477.57Z" transform="translate(-314.83 -349.107)" opacity="0.1"/>
  <path id="Path_1186" data-name="Path 1186" d="M545.86,335.925l1.5,4.621L561,326.494s-.6-1.393-1.5-3.344C557.783,326.808,549.551,333.185,545.86,335.925Z" transform="translate(-323.984 -258.507)" opacity="0.1"/>
  <path id="Path_1187" data-name="Path 1187" d="M464.885,341.669a24.028,24.028,0,0,0,1.066-4.311l17.772,6.2s12.192,9.3,10.952,29.55c0,0-15.085-5.579-21.7,1.033l-.136,1.165a53.728,53.728,0,0,1-14.569,30.741c-3.306,3.451-6.385,7.344-8.026,11.076,0,0-11.572-3.306-18.6-12.4s-40.5-18.6-40.5-18.6,17.772.413,20.251-5.786,10.746-19.425,7.853-29.757-4.546-13.639-4.546-13.639,16.945-11.985,15.705-15.705l10.746,12.4,4.959,1.653a7.936,7.936,0,0,0-.583,3.021C445.266,349.55,461.12,352.253,464.885,341.669Z" transform="translate(-193.803 -257.386)" fill="#cedad5"/>
  <path id="Path_1188" data-name="Path 1188" d="M209.169,496s-3.463,4.546,1.6,11.366,9.237,12.61,7.547,16.875c0,0-7.638-12.7-13.854-12.878S202.329,503.65,209.169,496Z" transform="translate(160.686 -359.92)" fill="#6c63ff"/>
  <path id="Path_1189" data-name="Path 1189" d="M209.643,496a5.608,5.608,0,0,0-.707,1.422c-6.067,7.125-9.295,13.775-3.468,13.944,5.431.157,11.944,9.865,13.506,12.32a5.257,5.257,0,0,1-.186.558s-7.638-12.7-13.854-12.878S202.8,503.65,209.643,496Z" transform="translate(160.212 -359.92)" opacity="0.1"/>
  <path id="Path_1190" data-name="Path 1190" d="M238,508.562c0,1.6.178,2.893.413,2.893s.413-1.294.413-2.893-.223-.827-.442-.827S238,506.966,238,508.562Z" transform="translate(125.428 -366.695)" fill="#ffd037"/>
  <path id="Path_1191" data-name="Path 1191" d="M239.617,513.061c1.4.765,2.62,1.24,2.724,1.029s-.942-.971-2.343-1.732-.847-.207-.955,0S238.216,512.3,239.617,513.061Z" transform="translate(121.591 -369.289)" fill="#ffd037"/>
  <path id="Path_1192" data-name="Path 1192" d="M170.9,496s3.463,4.546-1.6,11.366-9.237,12.61-7.547,16.875c0,0,7.638-12.7,13.854-12.878S177.739,503.65,170.9,496Z" transform="translate(217.248 -359.92)" fill="#6c63ff"/>
  <path id="Path_1193" data-name="Path 1193" d="M170.707,496a5.608,5.608,0,0,1,.707,1.422c6.067,7.125,9.295,13.775,3.468,13.944-5.431.157-11.944,9.865-13.506,12.32a5.274,5.274,0,0,0,.186.558s7.638-12.7,13.854-12.878S177.543,503.65,170.707,496Z" transform="translate(217.444 -359.92)" opacity="0.1"/>
  <path id="Path_1194" data-name="Path 1194" d="M165.427,508.562c0,1.6-.178,2.893-.413,2.893s-.413-1.294-.413-2.893.223-.827.442-.827S165.427,506.966,165.427,508.562Z" transform="translate(229.163 -366.695)" fill="#ffd037"/>
  <path id="Path_1195" data-name="Path 1195" d="M159.924,513.061c-1.4.765-2.62,1.24-2.724,1.029s.942-.971,2.343-1.732.847-.207.955,0S161.325,512.3,159.924,513.061Z" transform="translate(236.873 -369.289)" fill="#ffd037"/>
  <path id="Path_1196" data-name="Path 1196" d="M203.3,555.5s-9.683-.3-12.6-2.376-14.879-4.546-15.618-1.24-14.552,16.577-3.62,16.664,25.4-1.7,28.315-3.476S203.3,555.5,203.3,555.5Z" transform="translate(190.184 -391.763)" fill="#a8a8a8"/>
  <path id="Path_1197" data-name="Path 1197" d="M171.275,574.821c10.932.087,25.4-1.7,28.315-3.476,2.219-1.352,3.1-6.2,3.4-8.435h.322s-.612,7.811-3.525,9.584-17.383,3.567-28.315,3.476c-3.158-.025-4.245-1.149-4.187-2.81C167.724,574.172,168.927,574.8,171.275,574.821Z" transform="translate(190.174 -399.176)" opacity="0.2"/>
  <path id="Path_1198" data-name="Path 1198" d="M318.991,684.324a4.823,4.823,0,0,1-1.583-2.389,2.12,2.12,0,0,1,1.108-2.434c1.017-.389,2.1.314,2.926,1.029s1.769,1.525,2.848,1.372a4.332,4.332,0,0,1-1.339-4.054,1.7,1.7,0,0,1,.372-.827c.566-.6,1.587-.343,2.265.132,2.149,1.513,2.748,4.43,2.761,7.059a13.531,13.531,0,0,0,.041-2.893,2.987,2.987,0,0,1,1.091-2.571,3.307,3.307,0,0,1,1.653-.393,3.442,3.442,0,0,1,2.7.769,2.658,2.658,0,0,1-.107,3.306,10.757,10.757,0,0,1-2.8,2.24,6.2,6.2,0,0,0-2,1.905,1.886,1.886,0,0,0-.149.339h-6.047a16.874,16.874,0,0,1-3.744-2.591Z" transform="translate(-2.91 -465.92)" fill="#6c63ff"/>
  <path id="Path_1199" data-name="Path 1199" d="M383.991,716.134a4.823,4.823,0,0,1-1.583-2.389,2.12,2.12,0,0,1,1.108-2.434c1.017-.388,2.1.314,2.926,1.029s1.769,1.525,2.848,1.372a4.331,4.331,0,0,1-1.339-4.054,1.7,1.7,0,0,1,.372-.827c.566-.6,1.587-.343,2.265.132,2.149,1.513,2.748,4.43,2.761,7.059a13.531,13.531,0,0,0,.041-2.893,2.987,2.987,0,0,1,1.091-2.571,3.307,3.307,0,0,1,1.653-.393,3.442,3.442,0,0,1,2.7.769,2.658,2.658,0,0,1-.107,3.306,10.76,10.76,0,0,1-2.8,2.24,6.2,6.2,0,0,0-2,1.905,1.89,1.89,0,0,0-.149.339h-6.046a16.874,16.874,0,0,1-3.744-2.591Z" transform="translate(-94.774 -484.583)" fill="#6c63ff"/>
  <path id="Path_1200" data-name="Path 1200" d="M572.1,564.953s-40.089-16.532-72.739-.827l7.853,16.532,37.61.827Z" transform="translate(-315.863 -395.917)" fill="#6c63ff"/>
  <path id="Path_1201" data-name="Path 1201" d="M455.488,334.911a42.837,42.837,0,0,0-.628-4.6L478,328.24s-1.6,1.385-2.3,6.551c-2.715,1.612-5.885,3.782-9.27,3.782A18.1,18.1,0,0,1,455.488,334.911Z" transform="translate(-203.376 -261.493)" opacity="0.1"/>
  <circle id="Ellipse_148" data-name="Ellipse 148" cx="18.185" cy="18.185" r="18.185" transform="translate(244.664 40.089)" fill="#ffd2d9"/>
  <path id="Path_1202" data-name="Path 1202" d="M458,275.7h-2.48v-7.026l-2.48-7.439s-12.4-5.786-18.185-4.546l-4.546,4.133s-1.24-9.919,6.2-13.639,20.665-2.066,23.971.827,8.679,7.853,4.546,21.491l-1.24,3.306S458.827,271.158,458,275.7Z" transform="translate(-181.719 -212.677)" fill="#844f6e"/>
  <g id="Group_185" data-name="Group 185" transform="translate(197.343 63.858)" opacity="0.05">
    <path id="Path_1203" data-name="Path 1203" d="M536.193,329.966l-1.356-.451-6.257-7.2a1.761,1.761,0,0,0,.041-1.062Z" transform="translate(-489.375 -321.25)"/>
    <path id="Path_1204" data-name="Path 1204" d="M513.208,360.7a9.341,9.341,0,0,1-5.674-9.092,3.787,3.787,0,0,1,.041-.694l.132.149,4.96,1.653a7.935,7.935,0,0,0-.583,3.021,9.878,9.878,0,0,0,1.124,4.964Z" transform="translate(-457.691 -338.652)"/>
    <path id="Path_1205" data-name="Path 1205" d="M561.4,477.42c10.357,3.6,24.384,9.278,28.649,14.8.1.136.211.264.318.413-11.349-7.782-36.275-14.879-36.275-14.879A64.418,64.418,0,0,0,561.4,477.42Z" transform="translate(-554.09 -412.876)"/>
    <path id="Path_1206" data-name="Path 1206" d="M403.726,444.221c1.653-3.72,4.74-7.625,8.026-11.076A53.728,53.728,0,0,0,426.321,402.4l.136-1.165c6.613-6.613,21.7-1.033,21.7-1.033.785-12.845-3.831-21.28-7.311-25.736l.905.318s12.192,9.3,10.952,29.55c0,0-15.085-5.579-21.7,1.033l-.136,1.165A53.728,53.728,0,0,1,416.3,437.278c-3.306,3.451-6.385,7.344-8.026,11.076,0,0-10.072-2.893-17.127-10.646a42.785,42.785,0,0,0,12.581,6.514Z" transform="translate(-349.172 -352.475)"/>
  </g>
  <path id="Path_1207" data-name="Path 1207" d="M406.716,401.607s19.838,28.517,30.17,36.783,13.225-3.72,13.225-3.72V408.22l-18.185-2.066-.194,2.509-.219,2.864-16.945-18.185s-16.945-15.292-20.251-6.2S406.716,401.607,406.716,401.607Z" transform="translate(-150.273 -294.358)" fill="#ffd2d9"/>
  <path id="Path_1208" data-name="Path 1208" d="M393.83,439.766a39.373,39.373,0,0,0,7.853,3.484c3.906,1.2,8.382-.062,10.539-.827v-3.087l-18.185-2.066Z" transform="translate(-112.37 -325.462)" opacity="0.1"/>
  <path id="Path_1209" data-name="Path 1209" d="M411.917,429.873,413,434.3s-6.46,3.013-11.833,1.36a46.99,46.99,0,0,1-10.332-4.96c-.827-.413,3.306-4.959,3.306-4.959Z" transform="translate(-111.872 -318.697)" fill="#cedad5"/>
  <path id="Path_1210" data-name="Path 1210" d="M699.132,544.246a33.57,33.57,0,0,0-9.092-4.959,32.486,32.486,0,0,1-8.679-4.546" transform="translate(-518.114 -382.649)" opacity="0.1"/>
  <path id="Path_1211" data-name="Path 1211" d="M890.824,594.175l.678-.045c-.984,2.48-2.405,8.592,3.426,15.25a23.38,23.38,0,0,0,16.532,7.853l19.247.9-.616,1.269-19.875-.942a23.38,23.38,0,0,1-16.532-7.853C886.075,601.929,890.824,594.175,890.824,594.175Z" transform="translate(-835.654 -417.493)" fill="#fff" opacity="0.2"/>
  <path id="Path_1212" data-name="Path 1212" d="M759.056,645.74h.062c-.054.975-.149,2.988-.165,5.2C758.936,649,759,647.087,759.056,645.74Z" transform="translate(-610.168 -447.773)" fill="lime" opacity="0.05"/>
  <path id="Path_1213" data-name="Path 1213" d="M816.761,637.1q-.087.376-.194.74C816.161,637.608,815.579,637.17,816.761,637.1Z" transform="translate(-691.414 -442.704)" fill="lime" opacity="0.05"/>
  <path id="Path_1214" data-name="Path 1214" d="M798.548,653.909c4.236,1.926,36.093-3.682,40.424-4.459a3.222,3.222,0,0,0,.492,1.153s-36.37,6.613-40.916,4.546c-2.339-1.062-2.926-2.455-2.608-3.72A4.2,4.2,0,0,0,798.548,653.909Z" transform="translate(-705.768 -449.95)" fill="#fff" opacity="0.2"/>
  <path id="Path_1215" data-name="Path 1215" d="M756.624,644.864c.021-.413.037-.624.037-.624S758.765,644.992,756.624,644.864Z" transform="translate(-607.674 -446.893)" fill="lime" opacity="0.05"/>
  <rect id="Rectangle_346" data-name="Rectangle 346" width="28.517" height="14.052" rx="4.08" transform="translate(245.078 49.182)" opacity="0.1"/>
  <rect id="Rectangle_347" data-name="Rectangle 347" width="11.985" height="5.373" rx="2.44" transform="translate(272.355 53.728)" opacity="0.1"/>
  <rect id="Rectangle_348" data-name="Rectangle 348" width="28.517" height="14.052" rx="4.08" transform="translate(245.078 48.768)" fill="#7679b4"/>
  <rect id="Rectangle_349" data-name="Rectangle 349" width="25.161" height="12.399" rx="4.08" transform="translate(245.107 49.595)" fill="#565388"/>
  <rect id="Rectangle_350" data-name="Rectangle 350" width="11.985" height="5.373" rx="2.44" transform="translate(272.355 53.315)" fill="#565388"/>
  <path id="Path_1216" data-name="Path 1216" d="M446.174,253.207a28.166,28.166,0,0,1-10.489-11.25,2.536,2.536,0,0,1-.388-1.736c.293-1.124,1.761-1.323,2.819-1.806,1.971-.905,2.8-3.191,4.1-4.931a9.861,9.861,0,0,1,9.642-3.72c1.885.38,3.629,1.314,5.53,1.6,4.1.6,8.572-1.885,12.254,0a10.557,10.557,0,0,1,3.815,4.092c2.509,4.013,5.654,8.266,3.372,12.973a10.151,10.151,0,0,1-6.34,5.708c-2.939.785-6.34.132-9.328-.194-2.459-.265-5.034-.827-7.51-.566C450.749,253.686,448.939,254.868,446.174,253.207Z" transform="translate(-194.881 -203.62)" opacity="0.1"/>
  <path id="Path_1217" data-name="Path 1217" d="M446.174,251.207a28.166,28.166,0,0,1-10.489-11.25,2.536,2.536,0,0,1-.388-1.736c.293-1.124,1.761-1.323,2.819-1.806,1.971-.905,2.8-3.191,4.1-4.931a9.861,9.861,0,0,1,9.642-3.72c1.885.38,3.629,1.314,5.53,1.6,4.1.6,8.572-1.885,12.254,0a10.557,10.557,0,0,1,3.815,4.092c2.509,4.013,5.654,8.266,3.372,12.973a10.151,10.151,0,0,1-6.34,5.708c-2.939.785-6.34.132-9.328-.194-2.459-.265-5.034-.827-7.51-.566C450.749,251.686,448.939,252.868,446.174,251.207Z" transform="translate(-194.881 -202.447)" fill="#844f6e"/>
  <path id="Path_1218" data-name="Path 1218" d="M603.72,96.4,783.5,128.534v-96.4L603.72,0Z" transform="translate(-603.72)" fill="#6c63ff" opacity="0.2"/>
  <path id="Path_1219" data-name="Path 1219" d="M981.363,18.772,948.113,13.04l-.483,14.9,34.13,5.708Z" transform="translate(-944.117 -7.651)" fill="#6c63ff" opacity="0.2"/>
  <g id="Group_186" data-name="Group 186" transform="translate(27.674 26.827)" opacity="0.2">
    <path id="Path_1220" data-name="Path 1220" d="M914.946,385.592a12.4,12.4,0,0,0-3.439-.285c-6.8.12-13.854.785-20.524-1.24-3.542-1.066-6.72-2.827-10.374-3.583-6.2-1.277-12.4.587-18.495-.967-1.24-.318-2.757-.765-3.637-.285-1.021.554-.3,1.992-1.542,2.356a5.87,5.87,0,0,0-1.157.264c-.455.265-.169.827.285,1.186,2.765,2.244,8.39.752,11.853,2.567.769.413,1.347.934,2.066,1.364a15.568,15.568,0,0,0,3.591,1.323l19.231,5.373a93.794,93.794,0,0,0,14.031,3.153c4.761.566,9.7.335,13.188-1.281a3.5,3.5,0,0,0,1.728-1.351C923.108,391.456,919.736,386.865,914.946,385.592Z" transform="translate(-840.702 -318.114)" fill="#252223" opacity="0.1"/>
    <path id="Path_1221" data-name="Path 1221" d="M733.219,136.06l-16.089,12.721L701.04,161.5l26.426,5,26.426,4.993-10.336-17.714Z" transform="translate(-642.01 -106.654)" fill="#6c63ff" opacity="0.3"/>
    <path id="Path_1222" data-name="Path 1222" d="M773.7,128.94l-16.089,12.717L741.52,154.378l26.426,4.993,26.426,5-10.336-17.714Z" transform="translate(-699.219 -102.477)" fill="#6c63ff" opacity="0.3"/>
    <path id="Path_1223" data-name="Path 1223" d="M826.215,64.91l31.051,59.15L798.38,112.6l-21.76-4.112Z" transform="translate(-776.62 -64.91)" fill="#6c63ff"/>
    <path id="Path_1224" data-name="Path 1224" d="M851.75,108.487l21.76,4.112,27.835-47.69Z" transform="translate(-851.75 -64.91)" opacity="0.1"/>
    <path id="Path_1225" data-name="Path 1225" d="M869.4,290.584a1.691,1.691,0,0,1,1.794-1.24s-.413-3.248,6.282-1.938a1.707,1.707,0,0,1,2.649-.537l.285-1.509s3.67,2.1-.219,5.1l-.467,2.48a.786.786,0,0,1-.058.182.786.786,0,0,0-.05.141c-.178.723-1.484,6.456,1.484,8.415,3.178,2.128,5-4.43,5-4.43,2.067-8.568,6-8.534,6.935-8.4.112,0,.227.025.343.033.438.025,1.8.512,2.319,5.451.624,5.927,2.893,4.447,2.893,4.447,5.088-2.773,8.679-.347,8.679-.347,8.828,5.191,1.323,14.928-.227,16.776.583,2.938,1.761,8.117,2.893,8.332,1.6.3,4.6,5.931-3.521,14.684l-2.162-.413s6.683-8.729,1.422-13.072a6.758,6.758,0,0,0,.413.93c2.947,5.038-7.08,11.109-7.08,11.109l-2.405-.455,5.555-7c2.207-2.893-1.909-5.257-1.909-5.257a7.419,7.419,0,0,1-2.364-8.993L886.5,312.931c1.405,3.108,3.472,10.746-3.4,20.805l-1.6-.3,1.31-12.2s-.413-2.624-3.2-6.584c-1.108,4.959-3.455,13.519-7,17.1l-2.323-.438s2.831-8.121,2.893-11.159c.029-1.24.083-2.459.194-3.682l.579-6.4a5.484,5.484,0,0,1-2.438-5.724l2.137-11.1a1.17,1.17,0,0,0-.992-1.38l-2.74-.372a.686.686,0,0,1-.525-.913Z" transform="translate(-836.174 -263.162)" fill="url(#linear-gradient)"/>
    <path id="Path_1226" data-name="Path 1226" d="M954.882,340.384s-2.571,15.317-7.6,20.392L945,360.363s2.777-7.972,2.852-10.944c.029-1.207.079-2.414.19-3.616l.934-10.332Z" transform="translate(-910.498 -292.562)" fill="#535461"/>
    <path id="Path_1227" data-name="Path 1227" d="M954.882,340.384s-2.571,15.317-7.6,20.392L945,360.363s2.777-7.972,2.852-10.944c.029-1.207.079-2.414.19-3.616l.934-10.332Z" transform="translate(-910.498 -292.562)" opacity="0.05"/>
    <path id="Path_1228" data-name="Path 1228" d="M872.618,352.67s1.653,9.84,3.215,10.138,4.521,5.823-3.459,14.416l-2.124-.413s7.357-9.6.359-13.535C870.614,363.287,869.395,355.071,872.618,352.67Z" transform="translate(-802.408 -302.653)" fill="#535461"/>
    <path id="Path_1229" data-name="Path 1229" d="M872.618,352.67s1.653,9.84,3.215,10.138,4.521,5.823-3.459,14.416l-2.124-.413s7.357-9.6.359-13.535C870.614,363.287,869.395,355.071,872.618,352.67Z" transform="translate(-802.408 -302.653)" opacity="0.05"/>
    <path id="Path_1230" data-name="Path 1230" d="M881.213,294.011l.459-2.422c3.815-2.943.215-5.009.215-5.009l-.492,2.6c-9.039-2.6-8.555,1.314-8.555,1.314a1.653,1.653,0,0,0-1.761,1.2.674.674,0,0,0,.545.893l2.691.368a1.149,1.149,0,0,1,.975,1.356l-2.1,10.9a5.468,5.468,0,0,0,1.1,4.468,6.178,6.178,0,0,0,4,2.128l20.764,3.926a7.255,7.255,0,0,0,2.323,8.828s4.042,2.31,1.876,5.162l-5.451,6.869,2.36.446s9.84-5.96,6.947-10.907a9.89,9.89,0,0,1,.665-9.977s10.084-11.126.484-16.771c0,0-3.542-2.381-8.534.343,0,0-2.228,1.451-2.839-4.364-.508-4.848-1.843-5.327-2.273-5.352a1.152,1.152,0,0,1-.335-.033c-.917-.132-4.79-.165-6.811,8.245,0,0-1.785,6.423-4.9,4.368-2.914-1.922-1.653-7.551-1.459-8.266a.769.769,0,0,1,.05-.136h0a.769.769,0,0,0,.045-.174Z" transform="translate(-837.462 -263.878)" fill="#535461"/>
    <path id="Path_1231" data-name="Path 1231" d="M937.446,345.519s6.389,8.865-2.517,21.9l-1.575-.3,1.285-11.985s-.76-5.03-7.658-11.63Z" transform="translate(-887.834 -297.279)" fill="#535461"/>
    <ellipse id="Ellipse_149" data-name="Ellipse 149" cx="1.682" cy="1.682" rx="1.682" ry="1.682" transform="translate(44.391 27.441) rotate(-169.3)" fill="#535461"/>
    <path id="Path_1232" data-name="Path 1232" d="M868.924,285.547c-1.943-2.955-.785-3.149-.033-3.926.512-.529,4.819-.732,7.5-.806.058-.207.149-.554.256-.975,0,0,.215-.777.314-1.323h-.169l.025-.161-3.306-.178c-2.823-.116-2.959-1.24-2.959-1.24-.066-1.93,3.12-.079,3.12-.079.632.31,2.31.079,3.62-.178a7.2,7.2,0,0,0,.062-.827,6.258,6.258,0,0,1,.083-1.277,2.067,2.067,0,0,1,.413-1,16.87,16.87,0,0,1,3.331-3.042,5.737,5.737,0,0,0-.2-2.17,2.633,2.633,0,0,1-1.389-2.806,2.543,2.543,0,0,1,.256-.727,2.276,2.276,0,0,1,.5-2.864,1.959,1.959,0,0,1,.281-.211,2.6,2.6,0,0,1,1.806-.413,4.712,4.712,0,0,1,1.959.8,5.322,5.322,0,0,0,2.211,1.141,9.034,9.034,0,0,1,1.806.045,2.506,2.506,0,0,1,1.372,1.769,3.526,3.526,0,0,0,1.12,1.976,5.859,5.859,0,0,0,1.963.537,2.893,2.893,0,0,1,2.087,1.748,1.91,1.91,0,0,1-.752,2.186,1.527,1.527,0,0,1-.355.194,3.041,3.041,0,0,0-.413.161.343.343,0,0,0-.136.227.732.732,0,0,0,.07.327,1.748,1.748,0,0,1-.12,1.393.9.9,0,0,1-.343.372.627.627,0,0,1-.136.087c-.484.211-1.083-.264-1.562-.05h-.037a3.382,3.382,0,0,0-.479.665,1.373,1.373,0,0,1-.413.347,2.025,2.025,0,0,1-1.426.306,5.028,5.028,0,0,1-1.773-.711c-.732-.413-1.529-.988-1.587-1.806-.033-.5.227-.984.165-1.48a1.36,1.36,0,0,0-.277-.649,5.048,5.048,0,0,1,.087,1.273,6.752,6.752,0,0,1-.124,1.029,7.312,7.312,0,0,1-.942,2.509,10.918,10.918,0,0,0-1.36,3.253,4.434,4.434,0,0,0-.025,1.537,6.379,6.379,0,0,1,.161,2.385c-.045.364-.165.368-.165.368h-.029a1.851,1.851,0,0,1-.645,1.31c-3.74,1.546-11.349-.645-11.349-.645,1.537.541,2.637,4.753,2.637,4.753a5.9,5.9,0,0,0,1.116,2.521h0c.827-.124,1.8.8,2.538,1.343l.062.041a.608.608,0,0,1,.107.909l-2.926,3.207c-1.686,1.194-2.657,1.273-2.93.934-.178-.223-.058-.62.355-1,1-.93.855-3.947.827-4.2A63.714,63.714,0,0,0,868.924,285.547Z" transform="translate(-818.792 -249.057)" fill="url(#linear-gradient-2)"/>
    <path id="Path_1233" data-name="Path 1233" d="M894.11,276.429a5.839,5.839,0,0,1,.289,3.637l3.17-1.682s-1.008-.273-.8-2.674Z" transform="translate(-832.153 -257.5)" fill="#f9d5c6"/>
    <path id="Path_1234" data-name="Path 1234" d="M907.47,308.8s-8.411.12-9.126.88-1.81.963,0,3.831,3.811,6.993,3.811,6.993l2.141-.98a5.675,5.675,0,0,1-1.475-2.967s-1.017-4.1-2.48-4.621c0,0,7.179,2.091,10.746.562a2.057,2.057,0,0,0,.508-2.265C911.152,308.682,907.47,308.8,907.47,308.8Z" transform="translate(-847.638 -276.912)" fill="#353535"/>
    <path id="Path_1235" data-name="Path 1235" d="M898.393,282.317s2.1-.517,1.947,2.7a7.212,7.212,0,0,1-1,3.306c-.682,1.165-1.653,3.17-1.368,4.836.413,2.521,0,2.525,0,2.525l-1.075-.653a9.307,9.307,0,0,0-4.807-1.364h-.5a31.071,31.071,0,0,0,1.029-5.224,3.183,3.183,0,0,1,.459-2.066C894.513,284.528,897.389,282.313,898.393,282.317Z" transform="translate(-833.891 -261.359)" opacity="0.1"/>
    <path id="Path_1236" data-name="Path 1236" d="M898.323,281.957s2.1-.517,1.947,2.7a7.212,7.212,0,0,1-1,3.306c-.682,1.165-1.653,3.17-1.368,4.836.413,2.521,0,2.525,0,2.525l-1.074-.653a9.307,9.307,0,0,0-4.807-1.364h-.5a31.08,31.08,0,0,0,1.029-5.224,3.183,3.183,0,0,1,.459-2.066C894.443,284.16,897.319,281.957,898.323,281.957Z" transform="translate(-833.792 -261.147)" fill="#409cd6"/>
    <path id="Path_1237" data-name="Path 1237" d="M901.273,286.828a1.513,1.513,0,0,0-2.48-.562,3.786,3.786,0,0,0-.761,1.174c-1,2.257-1.752,3.662-1.752,3.662a12.037,12.037,0,0,0-1.889.438c-.1.773-.219,1.575-.219,1.575l2.682.132,3.674-4.356A2.105,2.105,0,0,0,901.273,286.828Z" transform="translate(-835.961 -263.44)" opacity="0.1"/>
    <path id="Path_1238" data-name="Path 1238" d="M907.12,286.438a1.513,1.513,0,0,0-2.48-.562,3.785,3.785,0,0,0-.761,1.174c-1,2.257-1.752,3.662-1.752,3.662s-4.038,1.112-5.079.587c0,0-3-1.79-2.951.1,0,0,.12,1.083,2.79,1.178l5.811.285,3.674-4.356A2.133,2.133,0,0,0,907.12,286.438Z" transform="translate(-841.775 -263.211)" fill="#f9d5c6"/>
    <path id="Path_1239" data-name="Path 1239" d="M898.31,277.013c-.079-.376-.256-.231-.2-.893l-2.662.719a6.119,6.119,0,0,1,.273.827,2.863,2.863,0,0,0,.827.153C897.136,277.934,897.81,277.29,898.31,277.013Z" transform="translate(-833.448 -257.741)" opacity="0.1"/>
    <ellipse id="Ellipse_150" data-name="Ellipse 150" cx="2.562" cy="2.562" rx="2.562" ry="2.562" transform="translate(65.49 20.513) rotate(-169.3)" fill="#f9d5c6"/>
    <path id="Path_1240" data-name="Path 1240" d="M871.379,266.947c.455.025.951-.12,1.335.12a1.463,1.463,0,0,1,.413,1.409,4.015,4.015,0,0,0-.178,1.537c.161.665.827,1.075,1.405,1.426s1.24.827,1.3,1.5c.054.484-.194.959-.165,1.447.05.8.8,1.347,1.492,1.752a4.616,4.616,0,0,0,1.653.682,1.732,1.732,0,0,0,1.632-.6c.186-.256.3-.6.587-.732.455-.215,1.021.248,1.475.041a.826.826,0,0,0,.364-.384,1.757,1.757,0,0,0,.12-1.356.728.728,0,0,1-.062-.318c.037-.26.356-.347.6-.442a1.864,1.864,0,0,0,.967-2.261,2.707,2.707,0,0,0-1.963-1.694,5.494,5.494,0,0,1-1.852-.512,3.365,3.365,0,0,1-1.046-1.922,2.376,2.376,0,0,0-1.285-1.715,8.1,8.1,0,0,0-1.707-.033,4.744,4.744,0,0,1-2.067-1.1,4.323,4.323,0,0,0-1.847-.773,2.343,2.343,0,0,0-1.885.537C869.531,264.6,869.461,266.844,871.379,266.947Z" transform="translate(-808.98 -250.039)" opacity="0.1"/>
    <path id="Path_1241" data-name="Path 1241" d="M871.159,266.809c.455.025.951-.12,1.335.12a1.463,1.463,0,0,1,.413,1.409,4.017,4.017,0,0,0-.178,1.537c.161.665.827,1.075,1.405,1.426s1.24.827,1.3,1.5c.054.484-.194.959-.165,1.447.049.8.8,1.347,1.492,1.752a4.616,4.616,0,0,0,1.653.682,1.732,1.732,0,0,0,1.628-.587c.186-.256.3-.6.587-.732.455-.215,1.021.248,1.475.041a.826.826,0,0,0,.364-.384,1.757,1.757,0,0,0,.12-1.356.728.728,0,0,1-.062-.318c.037-.26.355-.347.6-.442a1.864,1.864,0,0,0,.967-2.261,2.707,2.707,0,0,0-1.963-1.694,5.493,5.493,0,0,1-1.852-.512,3.365,3.365,0,0,1-1.046-1.922,2.377,2.377,0,0,0-1.285-1.715,8.1,8.1,0,0,0-1.707-.033,4.744,4.744,0,0,1-2.066-1.1,4.323,4.323,0,0,0-1.847-.773,2.344,2.344,0,0,0-1.885.537C869.312,264.457,869.242,266.7,871.159,266.809Z" transform="translate(-808.666 -249.963)" fill="#2f302f"/>
    <path id="Path_1242" data-name="Path 1242" d="M892.9,285.972s3.306.215,3.025,2.525,1.149-2.633,1.149-2.633l-1.285-1.385-1.835.223Z" transform="translate(-831.158 -262.646)" opacity="0.1"/>
    <path id="Path_1243" data-name="Path 1243" d="M892.69,285.812s3.306.215,3.025,2.525,1.149-2.633,1.149-2.633l-1.285-1.384-1.835.223Z" transform="translate(-830.861 -262.552)" fill="#409cd6"/>
    <path id="Path_1244" data-name="Path 1244" d="M915.412,335.659l-2.786,3.145c-1.6,1.174-2.521,1.24-2.777.93-.165-.215-.05-.6.343-.979,1-.951.827-4.133.827-4.133a1.943,1.943,0,0,0,1.856-1.2c.789-.124,1.7.773,2.393,1.294l.058.041a.6.6,0,0,1,.087.9Z" transform="translate(-856.634 -291.355)" fill="#409cd6"/>
    <path id="Path_1245" data-name="Path 1245" d="M916.32,334.659s1.587.219,1.856-1.2a1.992,1.992,0,0,1-1.856,1.2Z" transform="translate(-861.939 -291.383)" opacity="0.1"/>
    <path id="Path_1246" data-name="Path 1246" d="M915.364,337.53l-2.786,3.145c-1.6,1.174-2.521,1.24-2.777.93.8-.248,3.071-1.24,5.41-5l.058.041a.6.6,0,0,1,.095.889Z" transform="translate(-856.585 -293.225)" opacity="0.1"/>
    <path id="Path_1247" data-name="Path 1247" d="M805.867,396.555s7.369,6.588-9.423,11.4c0,0-2.19-6.91,2.509-11.316a5.125,5.125,0,0,1,6.8-.2Z" transform="translate(-701.486 -327.634)" fill="#6c63ff"/>
    <path id="Path_1248" data-name="Path 1248" d="M809.353,398.11S801.2,402.2,800,409.637" transform="translate(-705.042 -329.313)" fill="none" stroke="#535461" stroke-miterlimit="10" stroke-width="1"/>
    <path id="Path_1249" data-name="Path 1249" d="M809.5,385.945s4.278-8.357,2.414-15.453a14.222,14.222,0,0,1,.529-9,23.916,23.916,0,0,1,2.021-3.881" transform="translate(-714.079 -305.552)" fill="none" stroke="#535461" stroke-miterlimit="10" stroke-width="2"/>
    <path id="Path_1250" data-name="Path 1250" d="M802.716,344.511c-.207,1.083,1.165,4.6,1.165,4.6s2.558-2.773,2.761-3.856a2,2,0,0,0-3.926-.744Z" transform="translate(-703.48 -296.912)" fill="#6c63ff"/>
    <path id="Path_1251" data-name="Path 1251" d="M813.757,355.945c.413,1.021,3.476,3.228,3.476,3.228s.641-3.72.223-4.74a2.008,2.008,0,0,0-3.72,1.513Z" transform="translate(-718.903 -302.953)" fill="#6c63ff"/>
    <path id="Path_1252" data-name="Path 1252" d="M816.8,379.685c.876.67,4.633,1.033,4.633,1.033s-1.327-3.534-2.2-4.2a2,2,0,1,0-2.43,3.17Z" transform="translate(-723.741 -316.401)" fill="#6c63ff"/>
    <path id="Path_1253" data-name="Path 1253" d="M816.192,399.587c.748.827,4.389,1.8,4.389,1.8s-.707-3.72-1.459-4.513a2,2,0,1,0-2.93,2.715Z" transform="translate(-722.743 -328.212)" fill="#6c63ff"/>
    <path id="Path_1254" data-name="Path 1254" d="M807.13,364.865c-.922.608-4.691.707-4.691.707s1.566-3.43,2.48-4.042a2,2,0,1,1,2.2,3.335Z" transform="translate(-704.716 -307.657)" fill="#6c63ff"/>
    <path id="Path_1255" data-name="Path 1255" d="M804.958,387.433c-1.062.306-4.687-.732-4.687-.732s2.521-2.806,3.583-3.112a2,2,0,0,1,1.1,3.84Z" transform="translate(-702.205 -320.748)" fill="#6c63ff"/>
    <path id="Path_1256" data-name="Path 1256" d="M808.011,409.982c-.992.479-4.745.074-4.745.074s2.013-3.191,3-3.67a2,2,0,1,1,1.74,3.6Z" transform="translate(-706.18 -334.052)" fill="#6c63ff"/>
    <path id="Path_1257" data-name="Path 1257" d="M802.716,344.511c-.207,1.083,1.165,4.6,1.165,4.6s2.558-2.773,2.761-3.856a2,2,0,0,0-3.926-.744Z" transform="translate(-703.48 -296.912)" opacity="0.25"/>
    <path id="Path_1258" data-name="Path 1258" d="M813.757,355.945c.413,1.021,3.476,3.228,3.476,3.228s.641-3.72.223-4.74a2.008,2.008,0,0,0-3.72,1.513Z" transform="translate(-718.903 -302.953)" opacity="0.25"/>
    <path id="Path_1259" data-name="Path 1259" d="M816.8,379.685c.876.67,4.633,1.033,4.633,1.033s-1.327-3.534-2.2-4.2a2,2,0,1,0-2.43,3.17Z" transform="translate(-723.741 -316.401)" opacity="0.25"/>
    <path id="Path_1260" data-name="Path 1260" d="M816.192,399.587c.748.827,4.389,1.8,4.389,1.8s-.707-3.72-1.459-4.513a2,2,0,1,0-2.93,2.715Z" transform="translate(-722.743 -328.212)" opacity="0.25"/>
    <path id="Path_1261" data-name="Path 1261" d="M807.13,364.865c-.922.608-4.691.707-4.691.707s1.566-3.43,2.48-4.042a2,2,0,1,1,2.2,3.335Z" transform="translate(-704.716 -307.657)" opacity="0.25"/>
    <path id="Path_1262" data-name="Path 1262" d="M804.958,387.433c-1.062.306-4.687-.732-4.687-.732s2.521-2.806,3.583-3.112a2,2,0,0,1,1.1,3.84Z" transform="translate(-702.205 -320.748)" opacity="0.25"/>
    <path id="Path_1263" data-name="Path 1263" d="M808.011,409.982c-.992.479-4.745.074-4.745.074s2.013-3.191,3-3.67a2,2,0,1,1,1.74,3.6Z" transform="translate(-706.18 -334.052)" opacity="0.25"/>
    <path id="Path_1264" data-name="Path 1264" d="M829,389.8s4.278-8.357,2.414-15.453a14.221,14.221,0,0,1,.525-8.981,23.911,23.911,0,0,1,2.021-3.881" transform="translate(-741.634 -307.828)" fill="none" stroke="#535461" stroke-miterlimit="10" stroke-width="2"/>
    <path id="Path_1265" data-name="Path 1265" d="M822.246,348.331c-.207,1.083,1.166,4.6,1.166,4.6s2.558-2.773,2.761-3.856a2,2,0,0,0-3.926-.744Z" transform="translate(-731.082 -299.154)" fill="#6c63ff"/>
    <path id="Path_1266" data-name="Path 1266" d="M833.287,359.765c.413,1.021,3.476,3.228,3.476,3.228s.641-3.72.223-4.74a2.008,2.008,0,1,0-3.72,1.513Z" transform="translate(-746.504 -305.194)" fill="#6c63ff"/>
    <path id="Path_1267" data-name="Path 1267" d="M836.328,383.5c.876.67,4.633,1.033,4.633,1.033s-1.327-3.534-2.2-4.2a2,2,0,1,0-2.43,3.17Z" transform="translate(-751.343 -318.643)" fill="#6c63ff"/>
    <path id="Path_1268" data-name="Path 1268" d="M835.722,403.407c.748.827,4.389,1.8,4.389,1.8s-.707-3.72-1.459-4.513a2,2,0,1,0-2.93,2.715Z" transform="translate(-750.344 -330.453)" fill="#6c63ff"/>
    <path id="Path_1269" data-name="Path 1269" d="M826.659,368.685c-.922.608-4.691.707-4.691.707s1.566-3.43,2.48-4.042a2,2,0,0,1,2.2,3.335Z" transform="translate(-732.317 -309.899)" fill="#6c63ff"/>
    <path id="Path_1270" data-name="Path 1270" d="M824.487,391.243c-1.062.306-4.687-.732-4.687-.732s2.521-2.806,3.583-3.112a2,2,0,0,1,1.1,3.84Z" transform="translate(-729.807 -322.983)" fill="#6c63ff"/>
    <path id="Path_1271" data-name="Path 1271" d="M827.571,413.8c-.992.479-4.745.074-4.745.074s2.013-3.191,3-3.67a2,2,0,1,1,1.74,3.6Z" transform="translate(-733.824 -336.293)" fill="#6c63ff"/>
    <path id="Path_1272" data-name="Path 1272" d="M865.437,243.937l.727.136a.518.518,0,1,1,.194-1.017l5.889,1.112a.518.518,0,1,1-.194,1.017l-.727-.136a.518.518,0,1,1-.194,1.017l1.017.194a.518.518,0,0,1-.194,1.017l-5.889-1.112a.518.518,0,0,1,.194-1.017l-1.017-.194a.518.518,0,0,1,.194-1.017Z" transform="translate(-795.149 -238.337)" fill="#252223" opacity="0.1"/>
    <path id="Path_1273" data-name="Path 1273" d="M839.6,268.407l.727.136a.518.518,0,1,1,.194-1.017l5.9,1.112a.518.518,0,0,1-.194,1.017l-.727-.136a.518.518,0,1,1-.194,1.017l1.017.194a.518.518,0,0,1-.194,1.017l-5.906-1.112a.518.518,0,1,1,.194-1.017l-1.017-.194a.518.518,0,1,1,.194-1.017Z" transform="translate(-758.646 -252.694)" fill="#252223" opacity="0.1"/>
    <path id="Path_1274" data-name="Path 1274" d="M985.391,237.147l.727.136a.518.518,0,1,1,.194-1.017l5.885,1.124a.518.518,0,1,1-.194,1.017l-.727-.136a.518.518,0,0,1-.194,1.017l1.037.169a.518.518,0,0,1-.194,1.017l-5.889-1.112a.518.518,0,1,1,.194-1.017l-1.017-.194a.518.518,0,0,1,.194-1.017Z" transform="translate(-964.681 -234.353)" fill="#252223" opacity="0.1"/>
    <ellipse id="Ellipse_151" data-name="Ellipse 151" cx="5.484" cy="5.484" rx="5.484" ry="5.484" transform="translate(103.747 22.07) rotate(-169.3)" fill="#6c63ff" opacity="0.3"/>
    <path id="Path_1275" data-name="Path 1275" d="M896.1,338.19a24.633,24.633,0,0,0-4.042,4.6c-1.285,2.161-.876,2.893-.876,2.893" transform="translate(-829.449 -294.158)" opacity="0.05"/>
  </g>
</svg>
