<svg xmlns="http://www.w3.org/2000/svg" width="1226.72" height="438.531" viewBox="0 0 1226.72 438.531">
  <g id="What_we_do" data-name="What we do" transform="translate(-80 -2864)">
    <path id="Subtraction_15" data-name="Subtraction 15" d="M80.621,80.621a81.219,81.219,0,0,1-16.248-1.638,80.225,80.225,0,0,1-15.133-4.7,80.63,80.63,0,0,1-13.694-7.433,81.2,81.2,0,0,1-11.932-9.845,81.222,81.222,0,0,1-9.845-11.932A80.638,80.638,0,0,1,6.336,31.381a80.215,80.215,0,0,1-4.7-15.133A81.218,81.218,0,0,1,0,0H161.242A81.228,81.228,0,0,1,159.6,16.248a80.237,80.237,0,0,1-4.7,15.133,80.629,80.629,0,0,1-7.433,13.695,81.189,81.189,0,0,1-9.844,11.932A81.2,81.2,0,0,1,125.7,66.852,80.63,80.63,0,0,1,112,74.285a80.217,80.217,0,0,1-15.134,4.7A81.216,81.216,0,0,1,80.621,80.621Z" transform="translate(230.09 3132.563)" fill="#e3e3e3"/>
    <path id="Subtraction_18" data-name="Subtraction 18" d="M80.621,80.621a81.219,81.219,0,0,1-16.248-1.638,80.225,80.225,0,0,1-15.133-4.7,80.63,80.63,0,0,1-13.694-7.433,81.2,81.2,0,0,1-11.932-9.845,81.222,81.222,0,0,1-9.845-11.932A80.638,80.638,0,0,1,6.336,31.381a80.215,80.215,0,0,1-4.7-15.133A81.218,81.218,0,0,1,0,0H161.242A81.228,81.228,0,0,1,159.6,16.248a80.237,80.237,0,0,1-4.7,15.133,80.629,80.629,0,0,1-7.433,13.695,81.189,81.189,0,0,1-9.844,11.932A81.2,81.2,0,0,1,125.7,66.852,80.63,80.63,0,0,1,112,74.285a80.217,80.217,0,0,1-15.134,4.7A81.216,81.216,0,0,1,80.621,80.621Z" transform="translate(528.371 3131.613)" fill="#e3e3e3"/>
    <path id="Subtraction_21" data-name="Subtraction 21" d="M80.621,80.621a81.219,81.219,0,0,1-16.248-1.638,80.225,80.225,0,0,1-15.133-4.7,80.63,80.63,0,0,1-13.694-7.433,81.2,81.2,0,0,1-11.932-9.845,81.222,81.222,0,0,1-9.845-11.932A80.638,80.638,0,0,1,6.336,31.381a80.215,80.215,0,0,1-4.7-15.133A81.218,81.218,0,0,1,0,0H161.242A81.228,81.228,0,0,1,159.6,16.248a80.237,80.237,0,0,1-4.7,15.133,80.629,80.629,0,0,1-7.433,13.695,81.189,81.189,0,0,1-9.844,11.932A81.2,81.2,0,0,1,125.7,66.852,80.63,80.63,0,0,1,112,74.285a80.217,80.217,0,0,1-15.134,4.7A81.216,81.216,0,0,1,80.621,80.621Z" transform="translate(827.602 3131.613)" fill="#e3e3e3"/>
    <ellipse id="Ellipse_101" data-name="Ellipse 101" cx="80.621" cy="80.621" rx="80.621" ry="80.621" transform="translate(241.242 3214.369) rotate(180)" fill="#2a2f49"/>
    <ellipse id="Ellipse_109" data-name="Ellipse 109" cx="80.621" cy="80.621" rx="80.621" ry="80.621" transform="translate(540.391 3213.418) rotate(180)" fill="#5f71d9"/>
    <ellipse id="Ellipse_116" data-name="Ellipse 116" cx="80.621" cy="80.621" rx="80.621" ry="80.621" transform="translate(839.704 3213.418) rotate(180)" fill="#2a2f49"/>
    <ellipse id="Ellipse_123" data-name="Ellipse 123" cx="80.621" cy="80.621" rx="80.621" ry="80.621" transform="translate(1138.934 3213.418) rotate(180)" fill="#ed6f79"/>
    <path id="Subtraction_13" data-name="Subtraction 13" d="M80.621,80.621a81.219,81.219,0,0,1-16.248-1.638,80.225,80.225,0,0,1-15.133-4.7,80.63,80.63,0,0,1-13.694-7.433,81.2,81.2,0,0,1-11.932-9.845,81.222,81.222,0,0,1-9.845-11.932A80.638,80.638,0,0,1,6.336,31.381a80.215,80.215,0,0,1-4.7-15.133A81.218,81.218,0,0,1,0,0H161.242A81.228,81.228,0,0,1,159.6,16.248a80.237,80.237,0,0,1-4.7,15.133,80.629,80.629,0,0,1-7.433,13.695,81.189,81.189,0,0,1-9.844,11.932A81.2,81.2,0,0,1,125.7,66.852,80.63,80.63,0,0,1,112,74.285a80.217,80.217,0,0,1-15.134,4.7A81.216,81.216,0,0,1,80.621,80.621Z" transform="translate(241.242 3132.255) rotate(180)" fill="#e3e3e3"/>
    <path id="Subtraction_16" data-name="Subtraction 16" d="M80.621,80.621a81.219,81.219,0,0,1-16.248-1.638,80.225,80.225,0,0,1-15.133-4.7,80.63,80.63,0,0,1-13.694-7.433,81.2,81.2,0,0,1-11.932-9.845,81.222,81.222,0,0,1-9.845-11.932A80.638,80.638,0,0,1,6.336,31.381a80.215,80.215,0,0,1-4.7-15.133A81.218,81.218,0,0,1,0,0H161.242A81.228,81.228,0,0,1,159.6,16.248a80.237,80.237,0,0,1-4.7,15.133,80.629,80.629,0,0,1-7.433,13.695,81.189,81.189,0,0,1-9.844,11.932A81.2,81.2,0,0,1,125.7,66.852,80.63,80.63,0,0,1,112,74.285a80.217,80.217,0,0,1-15.134,4.7A81.216,81.216,0,0,1,80.621,80.621Z" transform="translate(540.472 3131.305) rotate(180)" fill="#e3e3e3"/>
    <path id="Subtraction_19" data-name="Subtraction 19" d="M80.621,80.621a81.219,81.219,0,0,1-16.248-1.638,80.225,80.225,0,0,1-15.133-4.7,80.63,80.63,0,0,1-13.694-7.433,81.2,81.2,0,0,1-11.932-9.845,81.222,81.222,0,0,1-9.845-11.932A80.638,80.638,0,0,1,6.336,31.381a80.215,80.215,0,0,1-4.7-15.133A81.218,81.218,0,0,1,0,0H161.242A81.228,81.228,0,0,1,159.6,16.248a80.237,80.237,0,0,1-4.7,15.133,80.629,80.629,0,0,1-7.433,13.695,81.189,81.189,0,0,1-9.844,11.932A81.2,81.2,0,0,1,125.7,66.852,80.63,80.63,0,0,1,112,74.285a80.217,80.217,0,0,1-15.134,4.7A81.216,81.216,0,0,1,80.621,80.621Z" transform="translate(839.703 3131.305) rotate(180)" fill="#e3e3e3"/>
    <path id="Subtraction_22" data-name="Subtraction 22" d="M80.621,80.621a81.219,81.219,0,0,1-16.248-1.638,80.225,80.225,0,0,1-15.133-4.7,80.63,80.63,0,0,1-13.694-7.433,81.2,81.2,0,0,1-11.932-9.845,81.222,81.222,0,0,1-9.845-11.932A80.638,80.638,0,0,1,6.336,31.381a80.215,80.215,0,0,1-4.7-15.133A81.218,81.218,0,0,1,0,0H161.242A81.228,81.228,0,0,1,159.6,16.248a80.237,80.237,0,0,1-4.7,15.133,80.629,80.629,0,0,1-7.433,13.695,81.189,81.189,0,0,1-9.844,11.932A81.2,81.2,0,0,1,125.7,66.852,80.63,80.63,0,0,1,112,74.285a80.217,80.217,0,0,1-15.134,4.7A81.216,81.216,0,0,1,80.621,80.621Z" transform="translate(1138.934 3131.305) rotate(180)" fill="#e3e3e3"/>
    <circle id="Ellipse_111" data-name="Ellipse 111" cx="68.871" cy="68.871" r="68.871" transform="translate(528.741 3201.317) rotate(180)" fill="#fff"/>
    <circle id="Ellipse_119" data-name="Ellipse 119" cx="68.871" cy="68.871" r="68.871" transform="translate(827.741 3201.317) rotate(180)" fill="#fff"/>
    <circle id="Ellipse_125" data-name="Ellipse 125" cx="68.871" cy="68.871" r="68.871" transform="translate(1126.741 3201.317) rotate(180)" fill="#fff"/>
    <circle id="Ellipse_103" data-name="Ellipse 103" cx="68.871" cy="68.871" r="68.871" transform="translate(228.741 3202.267) rotate(180)" fill="#fff"/>
    <ellipse id="Ellipse_126" data-name="Ellipse 126" cx="21.863" cy="21.863" rx="21.863" ry="21.863" transform="translate(137.946 2979.981)" fill="#4f4f4f"/>
    <ellipse id="Ellipse_128" data-name="Ellipse 128" cx="21.863" cy="21.863" rx="21.863" ry="21.863" transform="translate(435.277 2979.981)" fill="#4f4f4f"/>
    <ellipse id="Ellipse_130" data-name="Ellipse 130" cx="21.863" cy="21.863" rx="21.863" ry="21.863" transform="translate(734.459 2979.981)" fill="#4f4f4f"/>
    <ellipse id="Ellipse_132" data-name="Ellipse 132" cx="21.863" cy="21.863" rx="21.863" ry="21.863" transform="translate(1030.889 2979.981)" fill="#4f4f4f"/>
    <text id="_01" data-name="01" transform="translate(150.295 3005.38)" fill="#fff" font-size="14" font-family="NunitoSans-Bold, Nunito Sans" font-weight="700" letter-spacing="0.02em"><tspan x="0" y="0">01</tspan></text>
    <text id="_03" data-name="03" transform="translate(446.676 3005.38)" fill="#fff" font-size="14" font-family="NunitoSans-Bold, Nunito Sans" font-weight="700" letter-spacing="0.02em"><tspan x="0" y="0">03</tspan></text>
    <text id="_05" data-name="05" transform="translate(745.713 3004.369)" fill="#fff" font-size="14" font-family="NunitoSans-Bold, Nunito Sans" font-weight="700" letter-spacing="0.02em"><tspan x="0" y="0">05</tspan></text>
    <text id="_07" data-name="07" transform="translate(1043.238 3005.38)" fill="#fff" font-size="14" font-family="NunitoSans-Bold, Nunito Sans" font-weight="700" letter-spacing="0.02em"><tspan x="0" y="0">07</tspan></text>
    <text id="Investments" transform="translate(120.839 3151)" fill="#4f4f4f" font-size="14" font-family="NunitoSans-SemiBold, Nunito Sans" font-weight="600" letter-spacing="0.02em"><tspan x="0" y="0">Investments</tspan></text>
    <text id="Projected_ROI" data-name="Projected
ROI" transform="translate(460 3151)" fill="#4f4f4f" font-size="14" font-family="NunitoSans-SemiBold, Nunito Sans" font-weight="600" letter-spacing="0.02em"><tspan x="-31.157" y="0">Projected</tspan><tspan x="-12.341" y="19">ROI</tspan></text>
    <text id="Annual_ROI" data-name="Annual ROI" transform="translate(759 3151)" fill="#4f4f4f" font-size="14" font-family="NunitoSans-SemiBold, Nunito Sans" font-weight="600" letter-spacing="0.02em"><tspan x="-37.793" y="0">Annual ROI</tspan></text>
    <text id="Total_ROI" data-name="Total ROI" transform="translate(1058 3151)" fill="#4f4f4f" font-size="14" font-family="NunitoSans-SemiBold, Nunito Sans" font-weight="600" letter-spacing="0.02em"><tspan x="-30.569" y="0">Total ROI</tspan></text>
    <g id="Group_176" data-name="Group 176" transform="translate(746.602 3092.444)">
      <g id="noun_investment_2224049" transform="translate(0 0)">
        <g id="Group_63" data-name="Group 63" transform="translate(0)">
          <path id="Path_93" data-name="Path 93" d="M48.592,76.21a1.04,1.04,0,0,0-1.028-.81H24.2a1.04,1.04,0,0,0-1.028.81.988.988,0,0,0,.966,1.153H25.2l1.277,12.46A1.885,1.885,0,0,0,27,91.006a.7.7,0,0,0,.5.249H44.262a.848.848,0,0,0,.5-.249,1.885,1.885,0,0,0,.53-1.184l1.277-12.46h1.059A.988.988,0,0,0,48.592,76.21Z" transform="translate(-23.162 -52.437)" fill="#4f4f4f"/>
          <path id="Path_94" data-name="Path 94" d="M68.835,47.048h0a6.833,6.833,0,0,0-1.121,1.215.637.637,0,0,0,.249.966.646.646,0,0,0,.81-.28,11.824,11.824,0,0,1,.654-1.153c0,.031,1.059.716,1.153.779,2.648,1.277,4.859-1.339,5.887-3.489a11.962,11.962,0,0,0,1.246-4.641l-.031-.031c-2.835-.187-5.918.249-8.13,2.18A3.41,3.41,0,0,0,68.835,47.048Z" transform="translate(-53.747 -28.321)" fill="#4f4f4f"/>
          <path id="Path_95" data-name="Path 95" d="M34.864,48.494c.093-.062,1.153-.748,1.153-.779a11.825,11.825,0,0,1,.654,1.153.589.589,0,0,0,.81.28.632.632,0,0,0,.249-.966A5.757,5.757,0,0,0,36.609,47h-.031a3.451,3.451,0,0,0-.716-4.486c-2.212-1.931-5.3-2.336-8.13-2.18l-.031.031a12.26,12.26,0,0,0,1.246,4.641C30.036,47.155,32.217,49.771,34.864,48.494Z" transform="translate(-26.286 -28.272)" fill="#4f4f4f"/>
          <path id="Path_97" data-name="Path 97" d="M50.568,13.866a6.093,6.093,0,1,0-.343-12.179,6.093,6.093,0,0,0,.343,12.179ZM50.536,2.527a5.264,5.264,0,1,1-5.3,5.327A5.251,5.251,0,0,1,50.536,2.527Z" transform="translate(-37.784 -1.68)" fill="#4f4f4f"/>
        </g>
      </g>
      <g id="noun_Naira_Currency_769008" data-name="noun_Naira Currency_769008" transform="translate(9.023 2.492)">
        <path id="Path_98" data-name="Path 98" d="M17.177,17.114v.265h.168Zm0,.684v.157h.533l-.1-.157Zm1.43.788v-.211h-.134Zm-.4-.63h.4V17.8h-.5ZM19.3,14.4a3.764,3.764,0,1,0,2.359,3.493A3.76,3.76,0,0,0,19.3,14.4Zm.129,3.555a.21.21,0,1,1,0,.42h-.4v.934a.21.21,0,0,1-.387.112l-.663-1.046h-.8v1.019a.21.21,0,0,1-.42,0V18.375h-.4a.21.21,0,0,1,0-.42h.4V17.8h-.4a.21.21,0,1,1,0-.42h.4v-.988a.21.21,0,0,1,.387-.112l.7,1.1h.765v-.988a.21.21,0,1,1,.42,0v.988h.4a.21.21,0,1,1,0,.42h-.4v.157Z" transform="translate(-14.129 -14.13)" fill="#4f4f4f"/>
      </g>
    </g>
    <path id="Subtraction_14" data-name="Subtraction 14" d="M80.621,80.692a80.117,80.117,0,0,1-31.381-6.336,80.627,80.627,0,0,1-13.694-7.433,81.209,81.209,0,0,1-11.932-9.844,81.206,81.206,0,0,1-9.844-11.932A80.62,80.62,0,0,1,6.335,31.453,80.113,80.113,0,0,1,0,.071V0H161.241V.071a80.113,80.113,0,0,1-6.335,31.381,80.627,80.627,0,0,1-7.433,13.695,81.2,81.2,0,0,1-9.844,11.932A81.2,81.2,0,0,1,125.7,66.923,80.626,80.626,0,0,1,112,74.356,80.117,80.117,0,0,1,80.621,80.692Z" transform="translate(390.382 3132.79) rotate(180)" fill="#3e4360"/>
    <path id="Subtraction_17" data-name="Subtraction 17" d="M80.621,80.692a80.117,80.117,0,0,1-31.381-6.336,80.627,80.627,0,0,1-13.694-7.433,81.209,81.209,0,0,1-11.932-9.844,81.206,81.206,0,0,1-9.844-11.932A80.62,80.62,0,0,1,6.335,31.453,80.113,80.113,0,0,1,0,.071V0H161.241V.071a80.113,80.113,0,0,1-6.335,31.381,80.627,80.627,0,0,1-7.433,13.695,81.2,81.2,0,0,1-9.844,11.932A81.2,81.2,0,0,1,125.7,66.923,80.626,80.626,0,0,1,112,74.356,80.117,80.117,0,0,1,80.621,80.692Z" transform="translate(689.612 3131.84) rotate(180)" fill="#a5acd3"/>
    <path id="Subtraction_20" data-name="Subtraction 20" d="M80.621,80.692a80.117,80.117,0,0,1-31.381-6.336,80.627,80.627,0,0,1-13.694-7.433,81.209,81.209,0,0,1-11.932-9.844,81.206,81.206,0,0,1-9.844-11.932A80.62,80.62,0,0,1,6.335,31.453,80.113,80.113,0,0,1,0,.071V0H161.241V.071a80.113,80.113,0,0,1-6.335,31.381,80.627,80.627,0,0,1-7.433,13.695,81.2,81.2,0,0,1-9.844,11.932A81.2,81.2,0,0,1,125.7,66.923,80.626,80.626,0,0,1,112,74.356,80.117,80.117,0,0,1,80.621,80.692Z" transform="translate(988.843 3131.84) rotate(180)" fill="#3e4360"/>
    <circle id="Ellipse_105" data-name="Ellipse 105" cx="68.871" cy="68.871" r="68.871" transform="translate(241 3064.428)" fill="#fff"/>
    <circle id="Ellipse_113" data-name="Ellipse 113" cx="68.871" cy="68.871" r="68.871" transform="translate(541 3063.479)" fill="#fff"/>
    <circle id="Ellipse_121" data-name="Ellipse 121" cx="68.871" cy="68.871" r="68.871" transform="translate(840 3063.479)" fill="#fff"/>
    <ellipse id="Ellipse_127" data-name="Ellipse 127" cx="21.863" cy="21.863" rx="21.863" ry="21.863" transform="translate(329.863 3283.991) rotate(180)" fill="#4f4f4f"/>
    <ellipse id="Ellipse_131" data-name="Ellipse 131" cx="21.863" cy="21.863" rx="21.863" ry="21.863" transform="translate(923.575 3283.991) rotate(180)" fill="#4f4f4f"/>
    <ellipse id="Ellipse_129" data-name="Ellipse 129" cx="21.863" cy="21.863" rx="21.863" ry="21.863" transform="translate(629.094 3288.741) rotate(180)" fill="#4f4f4f"/>
    <text id="_02" data-name="02" transform="translate(298.486 3265.664)" fill="#fff" font-size="14" font-family="NunitoSans-Bold, Nunito Sans" font-weight="700" letter-spacing="0.02em"><tspan x="0" y="0">02</tspan></text>
    <text id="_06" data-name="06" transform="translate(892.198 3265.664)" fill="#fff" font-size="14" font-family="NunitoSans-Bold, Nunito Sans" font-weight="700" letter-spacing="0.02em"><tspan x="0" y="0">06</tspan></text>
    <text id="_04" data-name="04" transform="translate(597.717 3270.413)" fill="#fff" font-size="14" font-family="NunitoSans-Bold, Nunito Sans" font-weight="700" letter-spacing="0.02em"><tspan x="0" y="0">04</tspan></text>
    <text id="Contribution" transform="translate(269 3151)" fill="#4f4f4f" font-size="14" font-family="NunitoSans-SemiBold, Nunito Sans" font-weight="600" letter-spacing="0.02em"><tspan x="0" y="0">Contribution</tspan></text>
    <text id="Asset_Value" data-name="Asset Value" transform="translate(909 3151)" fill="#4f4f4f" font-size="14" font-family="NunitoSans-SemiBold, Nunito Sans" font-weight="600" letter-spacing="0.02em"><tspan x="-38.857" y="0">Asset Value</tspan></text>
    <text id="Monthly_ROI" data-name="Monthly
ROI" transform="translate(606.328 3151)" fill="#4f4f4f" font-size="14" font-family="NunitoSans-SemiBold, Nunito Sans" font-weight="600" letter-spacing="0.02em"><tspan x="-26.544" y="0">Monthly</tspan><tspan x="-12.341" y="19">ROI</tspan></text>
    <g id="noun_Sharing_Resources_589683" data-name="noun_Sharing Resources_589683" transform="translate(293 3105.594)">
      <g id="Group_169" data-name="Group 169" transform="translate(0 0)">
        <g id="Group_168" data-name="Group 168" transform="translate(0 0)">
          <path id="Path_974" data-name="Path 974" d="M391,275v16.161h4.617V275Z" transform="translate(-391 -263.456)" fill="#4f4f4f"/>
          <path id="Path_975" data-name="Path 975" d="M400.154,270.772h18.47a1.153,1.153,0,0,0,1.154-1.154v-3.463A1.155,1.155,0,0,0,418.624,265h-18.47A1.155,1.155,0,0,0,399,266.154v3.463A1.153,1.153,0,0,0,400.154,270.772Z" transform="translate(-389.765 -265)" fill="#4f4f4f"/>
          <path id="Path_976" data-name="Path 976" d="M411.63,276.772h6.994a1.153,1.153,0,0,0,1.154-1.154v-3.463A1.155,1.155,0,0,0,418.624,271h-18.47A1.155,1.155,0,0,0,399,272.154v3.463h9.812A4.029,4.029,0,0,1,411.63,276.772Z" transform="translate(-389.765 -264.074)" fill="#4f4f4f"/>
          <path id="Path_977" data-name="Path 977" d="M419.329,281.343l-9.476,3.158-6.926-2.73h6.349a2.886,2.886,0,0,0,0-5.772H396v11.544l12.939,2.739a2.917,2.917,0,0,0,1.826,0l10.389-3.463a2.886,2.886,0,0,0-1.826-5.476Z" transform="translate(-390.228 -263.302)" fill="#4f4f4f"/>
          <path id="Path_978" data-name="Path 978" d="M417.08,277H410.9a3.987,3.987,0,0,1,.406,1.732A4.037,4.037,0,0,1,409,282.368v.379l7.957-2.654a4.048,4.048,0,0,1,1.278-.208v-1.73A1.155,1.155,0,0,0,417.08,277Z" transform="translate(-388.221 -263.148)" fill="#4f4f4f"/>
        </g>
      </g>
    </g>
    <g id="noun_Sharing_Resources_589683-2" data-name="noun_Sharing Resources_589683" transform="translate(894 3104.665)">
      <g id="Group_169-2" data-name="Group 169" transform="translate(0 0)">
        <g id="Group_168-2" data-name="Group 168" transform="translate(0 0)">
          <path id="Path_974-2" data-name="Path 974" d="M391,275v14.211h4.06V275Z" transform="translate(-391 -264.849)" fill="#4f4f4f"/>
          <path id="Path_975-2" data-name="Path 975" d="M400.015,270.075h16.241a1.014,1.014,0,0,0,1.015-1.015v-3.045A1.015,1.015,0,0,0,416.256,265H400.015A1.015,1.015,0,0,0,399,266.015v3.045A1.014,1.014,0,0,0,400.015,270.075Z" transform="translate(-390.88 -265)" fill="#4f4f4f"/>
          <path id="Path_976-2" data-name="Path 976" d="M410.106,276.075h6.15a1.014,1.014,0,0,0,1.015-1.015v-3.045A1.016,1.016,0,0,0,416.256,271H400.015A1.015,1.015,0,0,0,399,272.015v3.045h8.628A3.542,3.542,0,0,1,410.106,276.075Z" transform="translate(-390.88 -264.91)" fill="#4f4f4f"/>
          <path id="Path_977-2" data-name="Path 977" d="M416.513,280.7l-8.333,2.777-6.09-2.4h5.583a2.538,2.538,0,0,0,0-5.075H396v10.151l11.378,2.409a2.564,2.564,0,0,0,1.606,0l9.135-3.045a2.538,2.538,0,0,0-1.606-4.816Z" transform="translate(-390.925 -264.834)" fill="#4f4f4f"/>
          <path id="Path_978-2" data-name="Path 978" d="M416.105,277h-5.433a3.506,3.506,0,0,1,.357,1.523,3.55,3.55,0,0,1-2.03,3.2v.333l7-2.334a3.559,3.559,0,0,1,1.124-.183v-1.521A1.015,1.015,0,0,0,416.105,277Z" transform="translate(-390.729 -264.819)" fill="#4f4f4f"/>
        </g>
      </g>
    </g>
    <text id="Investment_in_transportation_is_valued_at_N800_000" data-name="Investment in transportation
is valued at N800,000" transform="translate(198.565 2992.353)" fill="#606060" font-size="13" font-family="NunitoSans-SemiBold, Nunito Sans" font-weight="600" letter-spacing="0.02em"><tspan x="0" y="0">Investment in transportation</tspan><tspan x="0" y="18">is valued at N800,000</tspan></text>
    <text id="The_average_projected_return_on_investment_is_N25_000" data-name="The average projected return
on investment is N25,000" transform="translate(486.68 2992.353)" fill="#606060" font-size="13" font-family="NunitoSans-SemiBold, Nunito Sans" font-weight="600" letter-spacing="0.02em"><tspan x="0" y="0">The average projected return</tspan><tspan x="0" y="18">on investment is N25,000</tspan></text>
    <text id="Annual_projected_Return_of_investment:_N1_200_00" data-name="Annual projected Return
of investment: N1,200,00" transform="translate(785.83 2992.353)" fill="#606060" font-size="13" font-family="NunitoSans-SemiBold, Nunito Sans" font-weight="600" letter-spacing="0.02em"><tspan x="0" y="0">Annual projected Return</tspan><tspan x="0" y="18">of investment: N1,200,00</tspan></text>
    <text id="Total_Potential_return_on_investment_for_the_group_N1_700_000_4_Which_gives_N425_000_each" data-name="Total Potential return on investment 
for the group N1,700,000 / 4 
Which gives N425,000 each" transform="translate(1082.72 2992.353)" fill="#606060" font-size="13" font-family="NunitoSans-SemiBold, Nunito Sans" font-weight="600" letter-spacing="0.02em"><tspan x="0" y="0">Total Potential return on investment </tspan><tspan x="0" y="18">for the group N1,700,000 / 4 </tspan><tspan x="0" y="36">Which gives N425,000 each</tspan></text>
    <text id="Four_persons_are_required_to_contribute_N200_000_equally" data-name="Four persons are required
to contribute  N200,000 
equally" transform="translate(348.524 3253.258)" fill="#606060" font-size="13" font-family="NunitoSans-SemiBold, Nunito Sans" font-weight="600" letter-spacing="0.02em"><tspan x="0" y="0">Four persons are required</tspan><tspan x="0" y="18" xml:space="preserve">to contribute  N200,000 </tspan><tspan x="0" y="36">equally</tspan></text>
    <text id="Value_of_net_depreciation_N500_00_" data-name="Value of net depreciation
N500,00
" transform="translate(942.073 3261.531)" fill="#606060" font-size="13" font-family="NunitoSans-SemiBold, Nunito Sans" font-weight="600" letter-spacing="0.02em"><tspan x="0" y="0">Value of net depreciation</tspan><tspan x="0" y="18">N500,00</tspan><tspan x="0" y="36"></tspan></text>
    <text id="Monthly_projected_return_on_Investment_is_N100_000" data-name="Monthly projected return on
Investment is N100,000" transform="translate(647.167 3266.281)" fill="#606060" font-size="13" font-family="NunitoSans-SemiBold, Nunito Sans" font-weight="600" letter-spacing="0.02em"><tspan x="0" y="0">Monthly projected return on</tspan><tspan x="0" y="18">Investment is N100,000</tspan></text>
    <g id="noun_bar_chart_1080214" data-name="noun_bar chart_1080214" transform="translate(444 3099.584)">
      <g id="Group_173" data-name="Group 173" transform="translate(0)">
        <path id="Path_984" data-name="Path 984" d="M92.17,96.543H62.1V68.459a1.035,1.035,0,1,1,2.069,0V94.473h28a1.035,1.035,0,0,1,0,2.069ZM90.614,66.1a26.353,26.353,0,0,1-7.739,3.518l3.137.935c-4.511,5.728-9.22,7.987-12.44,8.873a15.044,15.044,0,0,1-6.266.5,1.035,1.035,0,0,0-.414,2.028,11.277,11.277,0,0,0,2.185.174,19.1,19.1,0,0,0,4.916-.67,22.816,22.816,0,0,0,6.878-3.195,30.564,30.564,0,0,0,6.812-6.489l1.837,2.756A26.193,26.193,0,0,1,90.614,66.1ZM73.564,84.086H66.28v8.451h7.284Zm9.353-1.978H75.633V92.536h7.284Zm9.254-3.865H84.886v14.17H92.17Z" transform="translate(-62.1 -66.1)" fill="#4f4f4f"/>
      </g>
    </g>
    <g id="Group_175" data-name="Group 175" transform="translate(592 3095.854)">
      <path id="Union_1" data-name="Union 1" d="M3.281,16.877A3.265,3.265,0,0,1,0,13.627a3.212,3.212,0,0,1,.574-1.835L8.212,0h7.2l7.64,11.792a3.21,3.21,0,0,1,.574,1.835,3.266,3.266,0,0,1-3.281,3.25Z" transform="translate(13.08 19.831)" fill="#4f4f4f"/>
      <g id="noun_Time_2129593" transform="translate(0 0)">
        <g id="Group_157" data-name="Group 157" transform="translate(5.098 19.198)">
          <rect id="Rectangle_263" data-name="Rectangle 263" width="2.11" height="2.11" fill="#4f4f4f"/>
        </g>
        <g id="Group_158" data-name="Group 158" transform="translate(7.308 25.151)">
          <rect id="Rectangle_264" data-name="Rectangle 264" width="2.11" height="2.11" transform="matrix(0.707, 0.707, -0.707, 0.707, 1.492, 0)" fill="#4f4f4f"/>
        </g>
        <g id="Group_159" data-name="Group 159" transform="translate(14.135 9.705)">
          <rect id="Rectangle_265" data-name="Rectangle 265" width="2.11" height="2.111" fill="#4f4f4f"/>
        </g>
        <path id="Path_945" data-name="Path 945" d="M31.943,41.141a2.317,2.317,0,0,0-.78.137L25.32,35.77l-1.447,1.535,5.843,5.508a2.32,2.32,0,1,0,2.227-1.672Z" transform="translate(-16.543 -23.42)" fill="#4f4f4f"/>
        <g id="Group_160" data-name="Group 160">
          <path id="Path_946" data-name="Path 946" d="M17.47,39.958a5.336,5.336,0,0,1,.275-1.685A12.444,12.444,0,1,1,29.938,17.048h4.738l1-1-3.282-3.282-1.367,1.367a15.314,15.314,0,0,0-7.647-2.923V9.454h2.954V6.5H17.471V9.454h2.954v1.76A15.4,15.4,0,0,0,17.66,41.347,5.349,5.349,0,0,1,17.47,39.958Z" transform="translate(-6.5 -6.5)" fill="#4f4f4f"/>
        </g>
        <path id="Path_947" data-name="Path 947" d="M62.062,41.563,63.677,36.5H53.832l1.614,5.063Z" transform="translate(-33.861 -23.842)" fill="#4f4f4f"/>
      </g>
      <g id="nigeria-naira-currency-symbol" transform="translate(19.939 26.035)">
        <path id="Path_831" data-name="Path 831" d="M9.51,49.462H8.162V48.2H9.51a.359.359,0,1,0,0-.717H8.162V45.72a.834.834,0,0,0-.154-.56.5.5,0,0,0-.4-.16.478.478,0,0,0-.387.159.844.844,0,0,0-.152.561v1.758H4.53l-1.078-1.6c-.092-.142-.179-.276-.263-.4a1.8,1.8,0,0,0-.22-.279.7.7,0,0,0-.215-.147A.726.726,0,0,0,2.46,45a.754.754,0,0,0-.415.122.675.675,0,0,0-.271.307,1.539,1.539,0,0,0-.073.538v1.51H.367a.359.359,0,1,0,0,.717H1.7v1.267H.367a.359.359,0,1,0,0,.717H1.7v2.007a.817.817,0,0,0,.16.554.5.5,0,0,0,.4.165.509.509,0,0,0,.4-.166.8.8,0,0,0,.162-.553V50.179H5.12L6.362,52.04c.086.123.176.247.264.369a1.76,1.76,0,0,0,.26.286.813.813,0,0,0,.265.159,1,1,0,0,0,.331.051c.336,0,.68-.1.68-.846v-1.88H9.51a.359.359,0,1,0,0-.717ZM7.066,48.2v1.267H5.871L5.015,48.2ZM2.825,46.74l.493.738H2.825Zm0,2.722V48.2H3.8l.845,1.267ZM7.066,51.23l-.71-1.051h.71V51.23Z" transform="translate(0 -45.001)" fill="#4f4f4f"/>
      </g>
    </g>
    <path id="Path_992" data-name="Path 992" d="M19.118,0,0,8.106l19.118,8.106Z" transform="translate(151.246 3037.097) rotate(-90)" fill="#4f4f4f"/>
    <path id="Path_994" data-name="Path 994" d="M19.118,0,0,8.106l19.118,8.106Z" transform="translate(448.576 3037.097) rotate(-90)" fill="#4f4f4f"/>
    <path id="Path_993" data-name="Path 993" d="M19.118,0,0,8.106l19.118,8.106Z" transform="translate(315.648 3228.865) rotate(90)" fill="#4f4f4f"/>
    <path id="Path_995" data-name="Path 995" d="M19.118,0,0,8.106l19.118,8.106Z" transform="translate(614.879 3233.615) rotate(90)" fill="#4f4f4f"/>
    <path id="Path_997" data-name="Path 997" d="M19.118,0,0,8.106l19.118,8.106Z" transform="translate(909.36 3228.865) rotate(90)" fill="#4f4f4f"/>
    <path id="Path_996" data-name="Path 996" d="M19.118,0,0,8.106l19.118,8.106Z" transform="translate(747.807 3037.097) rotate(-90)" fill="#4f4f4f"/>
    <path id="Path_998" data-name="Path 998" d="M19.118,0,0,8.106l19.118,8.106Z" transform="translate(1046.088 3037.097) rotate(-90)" fill="#4f4f4f"/>
    <g id="noun_roi_1314385" transform="translate(1040.458 3097.629)">
      <g id="Group_178" data-name="Group 178" transform="translate(5.542)">
        <path id="Path_999" data-name="Path 999" d="M26.115,0V26.259H2.857V0ZM5.9,11.958v3.154H9.182V11.958Zm4.631,0v3.154h3.282V11.958Zm4.629,0v3.154h3.282V11.958Zm4.629,0v3.154h3.282V11.958ZM5.9,16.175v3.154H9.182V16.175Zm4.631,0v3.154h3.282V16.175Zm4.629,0v3.154h3.282V16.175Zm4.629,0v7.371h3.282V16.175ZM5.9,20.392v3.154H9.182V20.392Zm4.631,0v3.154h3.282V20.392Zm4.629,0v3.154h3.282V20.392ZM5.9,10.624H23.072V3.059H5.9v7.565ZM12.635,6.64l3.288,1.386a1.041,1.041,0,0,0,2.072-.165l2.9-1.821a1.042,1.042,0,1,0-.567-.9l-2.9,1.82a1.046,1.046,0,0,0-1.089.088L13.05,5.657a1.04,1.04,0,0,0-2.071.166l-2.9,1.821a1.041,1.041,0,1,0,.567.905l2.9-1.821a1.045,1.045,0,0,0,1.089-.088Z" transform="translate(-2.857)" fill="#4f4f4f"/>
      </g>
    </g>
    <g id="Group_181" data-name="Group 181" transform="translate(-619.835 -137)">
      <g id="Group_180" data-name="Group 180" transform="translate(763.836 3234)">
        <g id="noun_Money_1616655">
          <g id="Group_179" data-name="Group 179" transform="translate(0 0)">
            <path id="Path_1000" data-name="Path 1000" d="M38.659,53.164c-3.38,0-6.218-1.217-7.66-2.974v1.172a3.476,3.476,0,0,0,.541,1.712,7.829,7.829,0,0,0-1.757-.225,8.224,8.224,0,0,0-1.8.225,2.967,2.967,0,0,0,.541-1.712V50.19c-1.442,1.8-4.281,2.974-7.66,2.974s-6.218-1.217-7.66-2.974v1.172c0,2.523,3.425,4.6,7.66,4.6a13.281,13.281,0,0,0,3.064-.36,9.892,9.892,0,0,0-.766,1.126h0a12.508,12.508,0,0,1-2.3.18c-3.38,0-6.218-1.217-7.66-2.974v1.081c0,2.523,3.425,4.6,7.66,4.6.451,0,.9-.045,1.352-.09a6.039,6.039,0,0,0-.045.9v.045a12.233,12.233,0,0,1-1.307.045c-3.38,0-6.218-1.217-7.66-2.974v1.172c0,2.523,3.425,4.6,7.66,4.6a10.706,10.706,0,0,0,1.757-.135,7.764,7.764,0,0,0,7.21,4.912,7.553,7.553,0,0,0,7.12-4.912A11.112,11.112,0,0,0,38.7,63.3c4.236,0,7.66-2.073,7.66-4.6V57.535c-1.442,1.8-4.281,2.974-7.66,2.974a11.392,11.392,0,0,1-1.262-.045v-.045a5.745,5.745,0,0,0-.045-.9,12.731,12.731,0,0,0,1.307.09c4.236,0,7.66-2.073,7.66-4.6V53.84c-1.442,1.8-4.281,2.974-7.66,2.974a12.016,12.016,0,0,1-2.253-.18h0a9.892,9.892,0,0,0-.766-1.127,12.89,12.89,0,0,0,3.019.36c4.236,0,7.66-2.073,7.66-4.6V50.1C44.877,51.993,42.084,53.164,38.659,53.164Zm-2.478,7.3a6.454,6.454,0,0,1-1.847,4.506,6.264,6.264,0,0,1-4.506,1.847,6.454,6.454,0,0,1-4.506-1.847,6.264,6.264,0,0,1-1.847-4.506,6.454,6.454,0,0,1,1.847-4.506,6.264,6.264,0,0,1,4.506-1.847,6.308,6.308,0,0,1,6.353,6.353Z" transform="translate(-13.2 -32.031)" fill="#4f4f4f"/>
            <path id="Path_1001" data-name="Path 1001" d="M60.36,45.174c-3.38,0-6.218-1.217-7.66-2.974v1.172c0,2.523,3.425,4.6,7.66,4.6s7.66-2.073,7.66-4.6V42.2C66.579,43.957,63.785,45.174,60.36,45.174Z" transform="translate(-34.901 -27.691)" fill="#4f4f4f"/>
            <path id="Path_1002" data-name="Path 1002" d="M60.36,36.974c-3.38,0-6.218-1.217-7.66-2.974v1.172c0,2.523,3.425,4.6,7.66,4.6s7.66-2.073,7.66-4.6V34C66.579,35.8,63.785,36.974,60.36,36.974Z" transform="translate(-34.901 -23.186)" fill="#4f4f4f"/>
            <path id="Path_1003" data-name="Path 1003" d="M60.36,28.874c-3.38,0-6.218-1.217-7.66-2.974v1.172c0,2.523,3.425,4.6,7.66,4.6s7.66-2.073,7.66-4.6V25.9C66.579,27.657,63.785,28.874,60.36,28.874Z" transform="translate(-34.901 -18.735)" fill="#4f4f4f"/>
            <path id="Path_1004" data-name="Path 1004" d="M60.36,10c-4.236,0-7.66,2.073-7.66,4.6h0c0,2.523,3.425,4.6,7.66,4.6s7.66-2.073,7.66-4.6h0C68.02,12.073,64.6,10,60.36,10Z" transform="translate(-34.901 -10)" fill="#4f4f4f"/>
            <path id="Path_1005" data-name="Path 1005" d="M20.96,43.692c4.236,0,7.66-2.073,7.66-4.6h0c0-2.523-3.425-4.6-7.66-4.6s-7.66,2.073-7.66,4.6h0C13.3,41.62,16.725,43.692,20.96,43.692Z" transform="translate(-13.255 -23.46)" fill="#4f4f4f"/>
          </g>
        </g>
        <g id="noun_nairas_1260087" transform="translate(13.073 25.342)">
          <path id="Path_1007" data-name="Path 1007" d="M17.2,11.7h0a.283.283,0,0,0-.3-.3h-.6V9.3A.283.283,0,0,0,16,9h0a.283.283,0,0,0-.3.3v2.1H13.211L11.74,9H10.9v2.4h-.6a.283.283,0,0,0-.3.3h0a.283.283,0,0,0,.3.3h.6v1.2h-.6a.283.283,0,0,0-.3.3h0a.283.283,0,0,0,.3.3h.6v2.1a.283.283,0,0,0,.3.3h0a.283.283,0,0,0,.3-.3V13.8h2.491l1.47,2.4h.84V13.8h.6a.283.283,0,0,0,.3-.3h0a.283.283,0,0,0-.3-.3h-.6V12h.6A.283.283,0,0,0,17.2,11.7ZM11.5,9.75l1.02,1.65H11.5Zm0,3.451V12h1.38l.75,1.2Zm4.2,2.25-1.02-1.65H15.7Zm0-2.25h-1.38l-.75-1.2H15.7Z" transform="translate(-10 -9)" fill="#4f4f4f" stroke="#4f4f4f" stroke-width="0.5"/>
        </g>
      </g>
    </g>
    <text id="We_offer_every_person_of_like-income_stream_to_join_investment_portfolios._We_invest_in_well_researched_and_less_exploited_investment_opportunities_that_guarantee_30-_45_Return_on_Investment." data-name="We offer every person of like-income stream to join investment portfolios. We invest in well researched and less exploited investment opportunities that guarantee 30- 45% Return on Investment." transform="translate(80 2864)" fill="#3b3b3b" font-size="20" font-family="NunitoSans-Regular, Nunito Sans" letter-spacing="0.02em" opacity="0.77"><tspan x="0" y="20">We offer every person of like-income stream to join investment portfolios. We invest in well researched and less exploited </tspan><tspan x="0" y="47">investment opportunities that guarantee 30- 45% Return on Investment.</tspan></text>
  </g>
</svg>
